<svg xmlns="http://www.w3.org/2000/svg" width="1120" height="760" viewBox="0 0 1120 760" role="img" aria-labelledby="title desc">
  <title id="title">half_arc_terminal_mars_reference</title>
  <desc id="desc">half_arc_terminal_mars_reference comparison reference at 800 meter radius with low, mid, and high time-to-go bands.</desc>
  <style>
    .title { font: 700 28px ui-sans-serif, system-ui, sans-serif; fill: #1f1a14; }
    .subtitle { font: 500 15px ui-sans-serif, system-ui, sans-serif; fill: #6d5844; }
    .axis-label { font: 12px ui-monospace, SFMono-Regular, monospace; fill: #7b6a59; }
    .legend-title { font: 700 14px ui-sans-serif, system-ui, sans-serif; fill: #2f271f; }
    .legend-label { font: 13px ui-sans-serif, system-ui, sans-serif; fill: #3d3329; }
    .arc-label { font: 600 12px ui-monospace, SFMono-Regular, monospace; fill: #2f271f; }
    .note { font: 13px ui-sans-serif, system-ui, sans-serif; fill: #5e4d3d; }
  </style>
  <rect width="1120" height="760" fill="#fbf8f1" />
  <text x="88" y="30" class="title">half_arc_terminal_mars_reference</text>
  <text x="88" y="54" class="subtitle">Comparison reference · tuned for steadier practical flight time · gravity = 3.71m/s² (mars)</text>
  <line x1="88" y1="676.0" x2="1076" y2="676.0" stroke="#e8dfd1" stroke-width="1" /><text x="74" y="680.0" text-anchor="end" class="axis-label">0m</text><line x1="88" y1="603.0" x2="1076" y2="603.0" stroke="#e8dfd1" stroke-width="1" /><text x="74" y="607.0" text-anchor="end" class="axis-label">100m</text><line x1="88" y1="530.0" x2="1076" y2="530.0" stroke="#e8dfd1" stroke-width="1" /><text x="74" y="534.0" text-anchor="end" class="axis-label">200m</text><line x1="88" y1="456.9" x2="1076" y2="456.9" stroke="#e8dfd1" stroke-width="1" /><text x="74" y="460.9" text-anchor="end" class="axis-label">300m</text><line x1="88" y1="383.9" x2="1076" y2="383.9" stroke="#e8dfd1" stroke-width="1" /><text x="74" y="387.9" text-anchor="end" class="axis-label">400m</text><line x1="88" y1="310.9" x2="1076" y2="310.9" stroke="#e8dfd1" stroke-width="1" /><text x="74" y="314.9" text-anchor="end" class="axis-label">500m</text><line x1="88" y1="237.9" x2="1076" y2="237.9" stroke="#e8dfd1" stroke-width="1" /><text x="74" y="241.9" text-anchor="end" class="axis-label">600m</text><line x1="88" y1="164.8" x2="1076" y2="164.8" stroke="#e8dfd1" stroke-width="1" /><text x="74" y="168.8" text-anchor="end" class="axis-label">700m</text><line x1="88" y1="91.8" x2="1076" y2="91.8" stroke="#e8dfd1" stroke-width="1" /><text x="74" y="95.8" text-anchor="end" class="axis-label">800m</text><line x1="282.6" y1="48" x2="282.6" y2="676" stroke="#efe7da" stroke-width="1" /><text x="282.6" y="698" text-anchor="middle" class="axis-label">0m</text><line x1="355.6" y1="48" x2="355.6" y2="676" stroke="#efe7da" stroke-width="1" /><text x="355.6" y="698" text-anchor="middle" class="axis-label">100m</text><line x1="428.7" y1="48" x2="428.7" y2="676" stroke="#efe7da" stroke-width="1" /><text x="428.7" y="698" text-anchor="middle" class="axis-label">200m</text><line x1="501.7" y1="48" x2="501.7" y2="676" stroke="#efe7da" stroke-width="1" /><text x="501.7" y="698" text-anchor="middle" class="axis-label">300m</text><line x1="574.7" y1="48" x2="574.7" y2="676" stroke="#efe7da" stroke-width="1" /><text x="574.7" y="698" text-anchor="middle" class="axis-label">400m</text><line x1="647.7" y1="48" x2="647.7" y2="676" stroke="#efe7da" stroke-width="1" /><text x="647.7" y="698" text-anchor="middle" class="axis-label">500m</text><line x1="720.7" y1="48" x2="720.7" y2="676" stroke="#efe7da" stroke-width="1" /><text x="720.7" y="698" text-anchor="middle" class="axis-label">600m</text><line x1="793.8" y1="48" x2="793.8" y2="676" stroke="#efe7da" stroke-width="1" /><text x="793.8" y="698" text-anchor="middle" class="axis-label">700m</text><line x1="866.8" y1="48" x2="866.8" y2="676" stroke="#efe7da" stroke-width="1" /><text x="866.8" y="698" text-anchor="middle" class="axis-label">800m</text>
  <line x1="88" y1="676.0" x2="1076" y2="676.0" stroke="#5d5448" stroke-width="2.2" />
  <rect x="269.5" y="669.0" width="26.3" height="7" fill="#cab488" />
  <text x="288.6" y="664.0" class="note">target pad</text>
  <polyline points="282.6,91.8 282.6,98.4 282.6,105.1 282.6,111.9 282.6,118.9 282.6,125.9 282.6,133.0 282.6,140.3 282.6,147.6 282.6,155.1 282.6,162.6 282.6,170.3 282.6,178.1 282.6,186.0 282.6,194.0 282.6,202.0 282.6,210.2 282.6,218.5 282.6,227.0 282.6,235.5 282.6,244.1 282.6,252.8 282.6,261.7 282.6,270.6 282.6,279.6 282.6,288.8 282.6,298.1 282.6,307.4 282.6,316.9 282.6,326.5 282.6,336.2 282.6,345.9 282.6,355.8 282.6,365.8 282.6,375.9 282.6,386.2 282.6,396.5 282.6,406.9 282.6,417.4 282.6,428.1 282.6,438.8 282.6,449.7 282.6,460.6 282.6,471.7 282.6,482.9 282.6,494.1 282.6,505.5 282.6,517.0 282.6,528.6 282.6,540.3 282.6,552.1 282.6,564.0 282.6,576.0 282.6,588.2 282.6,600.4 282.6,612.7 282.6,625.2 282.6,637.7 282.6,650.4 282.6,663.1 282.6,676.0" fill="none" stroke="#c17c11" stroke-width="3.2" stroke-dasharray="8 6" stroke-linecap="round" stroke-linejoin="round" /><polyline points="282.6,91.8 282.6,99.5 282.6,107.3 282.6,115.2 282.6,123.2 282.6,131.2 282.6,139.2 282.6,147.4 282.6,155.6 282.6,163.9 282.6,172.2 282.6,180.6 282.6,189.1 282.6,197.6 282.6,206.3 282.6,214.9 282.6,223.7 282.6,232.5 282.6,241.4 282.6,250.4 282.6,259.4 282.6,268.5 282.6,277.6 282.6,286.9 282.6,296.1 282.6,305.5 282.6,314.9 282.6,324.4 282.6,334.0 282.6,343.6 282.6,353.3 282.6,363.1 282.6,373.0 282.6,382.9 282.6,392.8 282.6,402.9 282.6,413.0 282.6,423.2 282.6,433.4 282.6,443.7 282.6,454.1 282.6,464.6 282.6,475.1 282.6,485.7 282.6,496.3 282.6,507.0 282.6,517.8 282.6,528.7 282.6,539.6 282.6,550.6 282.6,561.7 282.6,572.8 282.6,584.0 282.6,595.2 282.6,606.6 282.6,618.0 282.6,629.4 282.6,641.0 282.6,652.6 282.6,664.3 282.6,676.0" fill="none" stroke="#1d70b8" stroke-width="3.2" stroke-linecap="round" stroke-linejoin="round" /><polyline points="282.6,91.8 282.6,100.4 282.6,109.1 282.6,117.8 282.6,126.5 282.6,135.2 282.6,144.0 282.6,152.9 282.6,161.8 282.6,170.7 282.6,179.6 282.6,188.6 282.6,197.6 282.6,206.7 282.6,215.8 282.6,225.0 282.6,234.1 282.6,243.4 282.6,252.6 282.6,261.9 282.6,271.3 282.6,280.6 282.6,290.0 282.6,299.5 282.6,309.0 282.6,318.5 282.6,328.1 282.6,337.7 282.6,347.3 282.6,357.0 282.6,366.7 282.6,376.5 282.6,386.3 282.6,396.1 282.6,406.0 282.6,415.9 282.6,425.8 282.6,435.8 282.6,445.8 282.6,455.9 282.6,466.0 282.6,476.1 282.6,486.3 282.6,496.5 282.6,506.8 282.6,517.1 282.6,527.4 282.6,537.8 282.6,548.2 282.6,558.6 282.6,569.1 282.6,579.6 282.6,590.2 282.6,600.8 282.6,611.4 282.6,622.1 282.6,632.8 282.6,643.5 282.6,654.3 282.6,665.1 282.6,676.0" fill="none" stroke="#a73d2a" stroke-width="3.2" stroke-dasharray="3 5" stroke-linecap="round" stroke-linejoin="round" /><polyline points="433.8,111.7 431.3,118.0 428.8,124.4 426.2,130.9 423.7,137.5 421.2,144.2 418.7,151.0 416.2,157.9 413.6,164.9 411.1,172.0 408.6,179.2 406.1,186.6 403.6,194.0 401.0,201.6 398.5,209.2 396.0,217.0 393.5,224.8 391.0,232.8 388.4,240.9 385.9,249.1 383.4,257.4 380.9,265.8 378.4,274.3 375.8,282.9 373.3,291.6 370.8,300.4 368.3,309.3 365.8,318.4 363.2,327.5 360.7,336.8 358.2,346.1 355.7,355.6 353.2,365.1 350.6,374.8 348.1,384.6 345.6,394.5 343.1,404.4 340.6,414.5 338.0,424.7 335.5,435.0 333.0,445.5 330.5,456.0 328.0,466.6 325.4,477.3 322.9,488.2 320.4,499.1 317.9,510.2 315.4,521.3 312.8,532.6 310.3,543.9 307.8,555.4 305.3,567.0 302.8,578.7 300.2,590.5 297.7,602.4 295.2,614.4 292.7,626.5 290.2,638.7 287.6,651.0 285.1,663.5 282.6,676.0" fill="none" stroke="#c17c11" stroke-width="3.2" stroke-dasharray="8 6" stroke-linecap="round" stroke-linejoin="round" /><polyline points="433.8,111.7 431.3,119.1 428.8,126.6 426.2,134.1 423.7,141.7 421.2,149.4 418.7,157.1 416.2,165.0 413.6,172.8 411.1,180.8 408.6,188.8 406.1,196.9 403.6,205.0 401.0,213.2 398.5,221.5 396.0,229.9 393.5,238.3 391.0,246.8 388.4,255.3 385.9,264.0 383.4,272.6 380.9,281.4 378.4,290.2 375.8,299.1 373.3,308.1 370.8,317.1 368.3,326.2 365.8,335.4 363.2,344.6 360.7,353.9 358.2,363.3 355.7,372.7 353.2,382.2 350.6,391.8 348.1,401.5 345.6,411.2 343.1,420.9 340.6,430.8 338.0,440.7 335.5,450.7 333.0,460.7 330.5,470.9 328.0,481.0 325.4,491.3 322.9,501.6 320.4,512.0 317.9,522.5 315.4,533.0 312.8,543.6 310.3,554.2 307.8,565.0 305.3,575.8 302.8,586.6 300.2,597.6 297.7,608.6 295.2,619.6 292.7,630.8 290.2,642.0 287.6,653.3 285.1,664.6 282.6,676.0" fill="none" stroke="#1d70b8" stroke-width="3.2" stroke-linecap="round" stroke-linejoin="round" /><polyline points="433.8,111.7 431.3,120.0 428.8,128.3 426.2,136.7 423.7,145.1 421.2,153.5 418.7,162.0 416.2,170.5 413.6,179.0 411.1,187.6 408.6,196.2 406.1,204.9 403.6,213.6 401.0,222.3 398.5,231.1 396.0,239.9 393.5,248.7 391.0,257.6 388.4,266.6 385.9,275.5 383.4,284.5 380.9,293.6 378.4,302.7 375.8,311.8 373.3,320.9 370.8,330.1 368.3,339.4 365.8,348.6 363.2,357.9 360.7,367.3 358.2,376.7 355.7,386.1 353.2,395.6 350.6,405.1 348.1,414.6 345.6,424.2 343.1,433.8 340.6,443.4 338.0,453.1 335.5,462.9 333.0,472.6 330.5,482.4 328.0,492.3 325.4,502.2 322.9,512.1 320.4,522.0 317.9,532.0 315.4,542.1 312.8,552.1 310.3,562.3 307.8,572.4 305.3,582.6 302.8,592.8 300.2,603.1 297.7,613.4 295.2,623.7 292.7,634.1 290.2,644.5 287.6,655.0 285.1,665.5 282.6,676.0" fill="none" stroke="#a73d2a" stroke-width="3.2" stroke-dasharray="3 5" stroke-linecap="round" stroke-linejoin="round" /><polyline points="574.7,170.1 569.8,175.5 565.0,181.1 560.1,186.8 555.2,192.5 550.4,198.4 545.5,204.4 540.6,210.4 535.8,216.6 530.9,222.9 526.0,229.2 521.1,235.7 516.3,242.3 511.4,249.0 506.5,255.7 501.7,262.6 496.8,269.6 491.9,276.7 487.1,283.8 482.2,291.1 477.3,298.5 472.5,306.0 467.6,313.5 462.7,321.2 457.9,329.0 453.0,336.9 448.1,344.8 443.3,352.9 438.4,361.1 433.5,369.4 428.7,377.8 423.8,386.2 418.9,394.8 414.0,403.5 409.2,412.3 404.3,421.2 399.4,430.2 394.6,439.3 389.7,448.4 384.8,457.7 380.0,467.1 375.1,476.6 370.2,486.2 365.4,495.9 360.5,505.7 355.6,515.6 350.8,525.6 345.9,535.6 341.0,545.8 336.2,556.1 331.3,566.5 326.4,577.0 321.6,587.6 316.7,598.3 311.8,609.1 306.9,620.0 302.1,631.0 297.2,642.1 292.3,653.3 287.5,664.6 282.6,676.0" fill="none" stroke="#c17c11" stroke-width="3.2" stroke-dasharray="8 6" stroke-linecap="round" stroke-linejoin="round" /><polyline points="574.7,170.1 569.8,176.6 565.0,183.2 560.1,189.9 555.2,196.6 550.4,203.4 545.5,210.2 540.6,217.2 535.8,224.1 530.9,231.2 526.0,238.3 521.1,245.5 516.3,252.7 511.4,260.0 506.5,267.4 501.7,274.8 496.8,282.3 491.9,289.9 487.1,297.5 482.2,305.2 477.3,313.0 472.5,320.8 467.6,328.7 462.7,336.6 457.9,344.6 453.0,352.7 448.1,360.9 443.3,369.1 438.4,377.3 433.5,385.7 428.7,394.1 423.8,402.5 418.9,411.1 414.0,419.7 409.2,428.3 404.3,437.0 399.4,445.8 394.6,454.7 389.7,463.6 384.8,472.6 380.0,481.6 375.1,490.7 370.2,499.9 365.4,509.1 360.5,518.4 355.6,527.8 350.8,537.2 345.9,546.7 341.0,556.3 336.2,565.9 331.3,575.6 326.4,585.3 321.6,595.2 316.7,605.0 311.8,615.0 306.9,625.0 302.1,635.1 297.2,645.2 292.3,655.4 287.5,665.7 282.6,676.0" fill="none" stroke="#1d70b8" stroke-width="3.2" stroke-linecap="round" stroke-linejoin="round" /><polyline points="574.7,170.1 569.8,177.4 565.0,184.8 560.1,192.3 555.2,199.8 550.4,207.3 545.5,214.8 540.6,222.4 535.8,230.0 530.9,237.7 526.0,245.3 521.1,253.1 516.3,260.8 511.4,268.6 506.5,276.5 501.7,284.3 496.8,292.2 491.9,300.2 487.1,308.2 482.2,316.2 477.3,324.2 472.5,332.3 467.6,340.4 462.7,348.6 457.9,356.8 453.0,365.0 448.1,373.3 443.3,381.6 438.4,389.9 433.5,398.3 428.7,406.7 423.8,415.2 418.9,423.7 414.0,432.2 409.2,440.8 404.3,449.4 399.4,458.0 394.6,466.7 389.7,475.4 384.8,484.1 380.0,492.9 375.1,501.7 370.2,510.5 365.4,519.4 360.5,528.3 355.6,537.3 350.8,546.3 345.9,555.3 341.0,564.4 336.2,573.5 331.3,582.6 326.4,591.8 321.6,601.0 316.7,610.3 311.8,619.5 306.9,628.9 302.1,638.2 297.2,647.6 292.3,657.0 287.5,666.5 282.6,676.0" fill="none" stroke="#a73d2a" stroke-width="3.2" stroke-dasharray="3 5" stroke-linecap="round" stroke-linejoin="round" /><polyline points="695.7,262.9 688.8,267.0 681.9,271.2 675.0,275.4 668.1,279.8 661.3,284.2 654.4,288.8 647.5,293.4 640.6,298.2 633.7,303.0 626.8,308.0 620.0,313.0 613.1,318.1 606.2,323.3 599.3,328.6 592.4,334.0 585.5,339.5 578.6,345.1 571.8,350.8 564.9,356.6 558.0,362.5 551.1,368.5 544.2,374.6 537.3,380.7 530.5,387.0 523.6,393.4 516.7,399.8 509.8,406.4 502.9,413.0 496.0,419.8 489.1,426.6 482.3,433.5 475.4,440.6 468.5,447.7 461.6,454.9 454.7,462.2 447.8,469.6 441.0,477.1 434.1,484.7 427.2,492.4 420.3,500.2 413.4,508.1 406.5,516.1 399.6,524.1 392.8,532.3 385.9,540.6 379.0,548.9 372.1,557.4 365.2,566.0 358.3,574.6 351.5,583.3 344.6,592.2 337.7,601.1 330.8,610.1 323.9,619.3 317.0,628.5 310.1,637.8 303.3,647.2 296.4,656.7 289.5,666.3 282.6,676.0" fill="none" stroke="#c17c11" stroke-width="3.2" stroke-dasharray="8 6" stroke-linecap="round" stroke-linejoin="round" /><polyline points="695.7,262.9 688.8,268.0 681.9,273.2 675.0,278.4 668.1,283.6 661.3,289.0 654.4,294.4 647.5,299.8 640.6,305.3 633.7,310.9 626.8,316.5 620.0,322.2 613.1,328.0 606.2,333.8 599.3,339.7 592.4,345.6 585.5,351.6 578.6,357.7 571.8,363.8 564.9,370.0 558.0,376.2 551.1,382.5 544.2,388.9 537.3,395.3 530.5,401.8 523.6,408.4 516.7,415.0 509.8,421.6 502.9,428.4 496.0,435.2 489.1,442.0 482.3,448.9 475.4,455.9 468.5,463.0 461.6,470.1 454.7,477.2 447.8,484.4 441.0,491.7 434.1,499.1 427.2,506.5 420.3,513.9 413.4,521.4 406.5,529.0 399.6,536.7 392.8,544.4 385.9,552.2 379.0,560.0 372.1,567.9 365.2,575.8 358.3,583.8 351.5,591.9 344.6,600.0 337.7,608.2 330.8,616.5 323.9,624.8 317.0,633.2 310.1,641.6 303.3,650.1 296.4,658.7 289.5,667.3 282.6,676.0" fill="none" stroke="#1d70b8" stroke-width="3.2" stroke-linecap="round" stroke-linejoin="round" /><polyline points="695.7,262.9 688.8,268.8 681.9,274.7 675.0,280.6 668.1,286.6 661.3,292.6 654.4,298.7 647.5,304.8 640.6,310.9 633.7,317.0 626.8,323.2 620.0,329.4 613.1,335.7 606.2,341.9 599.3,348.3 592.4,354.6 585.5,361.0 578.6,367.4 571.8,373.9 564.9,380.4 558.0,386.9 551.1,393.5 544.2,400.0 537.3,406.7 530.5,413.3 523.6,420.0 516.7,426.8 509.8,433.5 502.9,440.3 496.0,447.2 489.1,454.0 482.3,460.9 475.4,467.9 468.5,474.8 461.6,481.8 454.7,488.9 447.8,496.0 441.0,503.1 434.1,510.2 427.2,517.4 420.3,524.6 413.4,531.8 406.5,539.1 399.6,546.4 392.8,553.8 385.9,561.2 379.0,568.6 372.1,576.0 365.2,583.5 358.3,591.0 351.5,598.6 344.6,606.2 337.7,613.8 330.8,621.4 323.9,629.1 317.0,636.9 310.1,644.6 303.3,652.4 296.4,660.2 289.5,668.1 282.6,676.0" fill="none" stroke="#a73d2a" stroke-width="3.2" stroke-dasharray="3 5" stroke-linecap="round" stroke-linejoin="round" /><polyline points="788.5,383.9 780.1,386.1 771.7,388.4 763.2,390.8 754.8,393.3 746.4,395.9 737.9,398.5 729.5,401.3 721.1,404.1 712.6,407.1 704.2,410.1 695.8,413.2 687.3,416.4 678.9,419.7 670.5,423.1 662.0,426.5 653.6,430.1 645.2,433.8 636.7,437.5 628.3,441.3 619.9,445.3 611.5,449.3 603.0,453.4 594.6,457.6 586.2,461.9 577.7,466.2 569.3,470.7 560.9,475.2 552.4,479.9 544.0,484.6 535.6,489.4 527.1,494.4 518.7,499.4 510.3,504.5 501.8,509.6 493.4,514.9 485.0,520.3 476.5,525.7 468.1,531.3 459.7,536.9 451.2,542.6 442.8,548.4 434.4,554.3 425.9,560.3 417.5,566.4 409.1,572.6 400.7,578.9 392.2,585.2 383.8,591.7 375.4,598.2 366.9,604.8 358.5,611.5 350.1,618.3 341.6,625.2 333.2,632.2 324.8,639.3 316.3,646.4 307.9,653.7 299.5,661.0 291.0,668.5 282.6,676.0" fill="none" stroke="#c17c11" stroke-width="3.2" stroke-dasharray="8 6" stroke-linecap="round" stroke-linejoin="round" /><polyline points="788.5,383.9 780.1,387.1 771.7,390.3 763.2,393.6 754.8,396.9 746.4,400.3 737.9,403.8 729.5,407.3 721.1,410.9 712.6,414.5 704.2,418.2 695.8,421.9 687.3,425.7 678.9,429.6 670.5,433.5 662.0,437.5 653.6,441.5 645.2,445.6 636.7,449.8 628.3,454.0 619.9,458.2 611.5,462.5 603.0,466.9 594.6,471.4 586.2,475.9 577.7,480.4 569.3,485.0 560.9,489.7 552.4,494.4 544.0,499.2 535.6,504.0 527.1,508.9 518.7,513.9 510.3,518.9 501.8,524.0 493.4,529.1 485.0,534.3 476.5,539.5 468.1,544.8 459.7,550.2 451.2,555.6 442.8,561.1 434.4,566.6 425.9,572.2 417.5,577.8 409.1,583.5 400.7,589.3 392.2,595.1 383.8,601.0 375.4,606.9 366.9,612.9 358.5,619.0 350.1,625.1 341.6,631.2 333.2,637.5 324.8,643.7 316.3,650.1 307.9,656.5 299.5,662.9 291.0,669.4 282.6,676.0" fill="none" stroke="#1d70b8" stroke-width="3.2" stroke-linecap="round" stroke-linejoin="round" /><polyline points="788.5,383.9 780.1,387.8 771.7,391.8 763.2,395.7 754.8,399.7 746.4,403.8 737.9,407.9 729.5,412.0 721.1,416.1 712.6,420.3 704.2,424.5 695.8,428.7 687.3,433.0 678.9,437.3 670.5,441.6 662.0,446.0 653.6,450.4 645.2,454.8 636.7,459.3 628.3,463.8 619.9,468.3 611.5,472.9 603.0,477.5 594.6,482.1 586.2,486.7 577.7,491.4 569.3,496.2 560.9,500.9 552.4,505.7 544.0,510.5 535.6,515.4 527.1,520.3 518.7,525.2 510.3,530.1 501.8,535.1 493.4,540.1 485.0,545.2 476.5,550.2 468.1,555.4 459.7,560.5 451.2,565.7 442.8,570.9 434.4,576.1 425.9,581.4 417.5,586.7 409.1,592.0 400.7,597.4 392.2,602.8 383.8,608.2 375.4,613.7 366.9,619.2 358.5,624.7 350.1,630.3 341.6,635.9 333.2,641.5 324.8,647.2 316.3,652.9 307.9,658.6 299.5,664.4 291.0,670.2 282.6,676.0" fill="none" stroke="#a73d2a" stroke-width="3.2" stroke-dasharray="3 5" stroke-linecap="round" stroke-linejoin="round" /><polyline points="831.6,476.2 822.4,477.0 813.3,477.9 804.1,478.9 795.0,480.0 785.8,481.2 776.7,482.4 767.5,483.7 758.4,485.2 749.2,486.7 740.1,488.3 730.9,489.9 721.8,491.7 712.6,493.5 703.5,495.5 694.3,497.5 685.2,499.6 676.0,501.8 666.9,504.0 657.7,506.4 648.6,508.8 639.4,511.3 630.3,513.9 621.1,516.6 612.0,519.4 602.8,522.3 593.7,525.2 584.5,528.3 575.4,531.4 566.2,534.6 557.1,537.9 547.9,541.2 538.8,544.7 529.6,548.2 520.5,551.9 511.3,555.6 502.2,559.4 493.0,563.3 483.9,567.2 474.7,571.3 465.6,575.4 456.4,579.6 447.3,583.9 438.1,588.3 429.0,592.8 419.8,597.4 410.7,602.0 401.5,606.8 392.4,611.6 383.2,616.5 374.1,621.5 364.9,626.5 355.8,631.7 346.6,636.9 337.5,642.3 328.4,647.7 319.2,653.2 310.1,658.7 300.9,664.4 291.8,670.2 282.6,676.0" fill="none" stroke="#c17c11" stroke-width="3.2" stroke-dasharray="8 6" stroke-linecap="round" stroke-linejoin="round" /><polyline points="831.6,476.2 822.4,477.9 813.3,479.7 804.1,481.5 795.0,483.4 785.8,485.4 776.7,487.4 767.5,489.4 758.4,491.5 749.2,493.7 740.1,495.9 730.9,498.2 721.8,500.5 712.6,502.9 703.5,505.3 694.3,507.8 685.2,510.3 676.0,512.9 666.9,515.6 657.7,518.3 648.6,521.0 639.4,523.9 630.3,526.7 621.1,529.7 612.0,532.6 602.8,535.7 593.7,538.7 584.5,541.9 575.4,545.1 566.2,548.3 557.1,551.6 547.9,555.0 538.8,558.4 529.6,561.9 520.5,565.4 511.3,569.0 502.2,572.6 493.0,576.3 483.9,580.0 474.7,583.8 465.6,587.7 456.4,591.6 447.3,595.5 438.1,599.5 429.0,603.6 419.8,607.7 410.7,611.9 401.5,616.1 392.4,620.4 383.2,624.7 374.1,629.1 364.9,633.6 355.8,638.1 346.6,642.6 337.5,647.2 328.4,651.9 319.2,656.6 310.1,661.4 300.9,666.2 291.8,671.1 282.6,676.0" fill="none" stroke="#1d70b8" stroke-width="3.2" stroke-linecap="round" stroke-linejoin="round" /><polyline points="831.6,476.2 822.4,478.6 813.3,481.1 804.1,483.6 795.0,486.1 785.8,488.6 776.7,491.2 767.5,493.8 758.4,496.5 749.2,499.1 740.1,501.9 730.9,504.6 721.8,507.3 712.6,510.1 703.5,513.0 694.3,515.8 685.2,518.7 676.0,521.6 666.9,524.6 657.7,527.6 648.6,530.6 639.4,533.6 630.3,536.7 621.1,539.8 612.0,542.9 602.8,546.1 593.7,549.3 584.5,552.5 575.4,555.7 566.2,559.0 557.1,562.3 547.9,565.7 538.8,569.1 529.6,572.5 520.5,575.9 511.3,579.4 502.2,582.9 493.0,586.4 483.9,590.0 474.7,593.5 465.6,597.2 456.4,600.8 447.3,604.5 438.1,608.2 429.0,612.0 419.8,615.7 410.7,619.5 401.5,623.4 392.4,627.2 383.2,631.1 374.1,635.1 364.9,639.0 355.8,643.0 346.6,647.0 337.5,651.1 328.4,655.1 319.2,659.3 310.1,663.4 300.9,667.6 291.8,671.8 282.6,676.0" fill="none" stroke="#a73d2a" stroke-width="3.2" stroke-dasharray="3 5" stroke-linecap="round" stroke-linejoin="round" /><polyline points="857.9,574.6 848.3,574.0 838.7,573.6 829.2,573.2 819.6,572.9 810.0,572.7 800.4,572.5 790.8,572.4 781.2,572.4 771.6,572.5 762.0,572.7 752.4,572.9 742.9,573.2 733.3,573.5 723.7,574.0 714.1,574.5 704.5,575.1 694.9,575.8 685.3,576.5 675.7,577.4 666.1,578.3 656.6,579.2 647.0,580.3 637.4,581.4 627.8,582.6 618.2,583.9 608.6,585.3 599.0,586.7 589.4,588.2 579.8,589.8 570.3,591.4 560.7,593.1 551.1,594.9 541.5,596.8 531.9,598.8 522.3,600.8 512.7,602.9 503.1,605.1 493.6,607.3 484.0,609.7 474.4,612.1 464.8,614.6 455.2,617.1 445.6,619.8 436.0,622.5 426.4,625.2 416.8,628.1 407.3,631.0 397.7,634.0 388.1,637.1 378.5,640.3 368.9,643.5 359.3,646.8 349.7,650.2 340.1,653.7 330.5,657.2 321.0,660.8 311.4,664.5 301.8,668.3 292.2,672.1 282.6,676.0" fill="none" stroke="#c17c11" stroke-width="3.2" stroke-dasharray="8 6" stroke-linecap="round" stroke-linejoin="round" /><polyline points="857.9,574.6 848.3,574.8 838.7,575.1 829.2,575.5 819.6,575.9 810.0,576.4 800.4,576.9 790.8,577.5 781.2,578.1 771.6,578.7 762.0,579.4 752.4,580.2 742.9,581.0 733.3,581.8 723.7,582.7 714.1,583.7 704.5,584.7 694.9,585.7 685.3,586.8 675.7,587.9 666.1,589.1 656.6,590.3 647.0,591.6 637.4,593.0 627.8,594.3 618.2,595.8 608.6,597.2 599.0,598.7 589.4,600.3 579.8,601.9 570.3,603.6 560.7,605.3 551.1,607.1 541.5,608.9 531.9,610.8 522.3,612.7 512.7,614.6 503.1,616.6 493.6,618.7 484.0,620.8 474.4,622.9 464.8,625.1 455.2,627.4 445.6,629.7 436.0,632.0 426.4,634.4 416.8,636.8 407.3,639.3 397.7,641.8 388.1,644.4 378.5,647.1 368.9,649.7 359.3,652.5 349.7,655.2 340.1,658.1 330.5,660.9 321.0,663.8 311.4,666.8 301.8,669.8 292.2,672.9 282.6,676.0" fill="none" stroke="#1d70b8" stroke-width="3.2" stroke-linecap="round" stroke-linejoin="round" /><polyline points="857.9,574.6 848.3,575.4 838.7,576.4 829.2,577.3 819.6,578.3 810.0,579.3 800.4,580.3 790.8,581.4 781.2,582.4 771.6,583.6 762.0,584.7 752.4,585.9 742.9,587.0 733.3,588.3 723.7,589.5 714.1,590.8 704.5,592.1 694.9,593.4 685.3,594.7 675.7,596.1 666.1,597.5 656.6,599.0 647.0,600.4 637.4,601.9 627.8,603.4 618.2,605.0 608.6,606.5 599.0,608.1 589.4,609.8 579.8,611.4 570.3,613.1 560.7,614.8 551.1,616.5 541.5,618.3 531.9,620.1 522.3,621.9 512.7,623.7 503.1,625.6 493.6,627.5 484.0,629.4 474.4,631.3 464.8,633.3 455.2,635.3 445.6,637.4 436.0,639.4 426.4,641.5 416.8,643.6 407.3,645.7 397.7,647.9 388.1,650.1 378.5,652.3 368.9,654.6 359.3,656.8 349.7,659.1 340.1,661.5 330.5,663.8 321.0,666.2 311.4,668.6 301.8,671.0 292.2,673.5 282.6,676.0" fill="none" stroke="#a73d2a" stroke-width="3.2" stroke-dasharray="3 5" stroke-linecap="round" stroke-linejoin="round" />
  <circle cx="282.6" cy="91.8" r="4.5" fill="#1f1a14" /><text x="290.6" y="81.8" class="arc-label">a00</text><circle cx="433.8" cy="111.7" r="4.5" fill="#1f1a14" /><text x="441.8" y="101.7" class="arc-label">a15</text><circle cx="574.7" cy="170.1" r="4.5" fill="#1f1a14" /><text x="582.7" y="160.1" class="arc-label">a30</text><circle cx="695.7" cy="262.9" r="4.5" fill="#1f1a14" /><text x="703.7" y="252.9" class="arc-label">a45</text><circle cx="788.5" cy="383.9" r="4.5" fill="#1f1a14" /><text x="796.5" y="373.9" class="arc-label">a60</text><circle cx="831.6" cy="476.2" r="4.5" fill="#1f1a14" /><text x="839.6" y="466.2" class="arc-label">a70</text><circle cx="857.9" cy="574.6" r="4.5" fill="#1f1a14" /><text x="865.9" y="564.6" class="arc-label">a80</text>
  <rect x="888" y="64" width="180" height="108" rx="12" fill="#fffaf1" stroke="#dcc9ab" stroke-width="1.2" /><text x="904" y="86" class="legend-title">Band Legend</text><line x1="904" y1="106" x2="940" y2="106" stroke="#c17c11" stroke-width="3.2" stroke-dasharray="8 6" stroke-linecap="round" /><text x="950" y="111" class="legend-label">low</text><line x1="904" y1="128" x2="940" y2="128" stroke="#1d70b8" stroke-width="3.2" stroke-linecap="round" /><text x="950" y="133" class="legend-label">mid</text><line x1="904" y1="150" x2="940" y2="150" stroke="#a73d2a" stroke-width="3.2" stroke-dasharray="3 5" stroke-linecap="round" /><text x="950" y="155" class="legend-label">high</text>
  <text x="88" y="734" class="note">Bands are solved from time-to-go. Low may start upward at shallow cells when the tuned practical flight time calls for it.</text>
</svg>
