<svg xmlns="http://www.w3.org/2000/svg" width="1120" height="760" viewBox="0 0 1120 760" role="img" aria-labelledby="title desc">
  <title id="title">half_arc_terminal_lunar_reference</title>
  <desc id="desc">half_arc_terminal_lunar_reference comparison reference at 800 meter radius with low, mid, and high time-to-go bands.</desc>
  <style>
    .title { font: 700 28px ui-sans-serif, system-ui, sans-serif; fill: #1f1a14; }
    .subtitle { font: 500 15px ui-sans-serif, system-ui, sans-serif; fill: #6d5844; }
    .axis-label { font: 12px ui-monospace, SFMono-Regular, monospace; fill: #7b6a59; }
    .legend-title { font: 700 14px ui-sans-serif, system-ui, sans-serif; fill: #2f271f; }
    .legend-label { font: 13px ui-sans-serif, system-ui, sans-serif; fill: #3d3329; }
    .arc-label { font: 600 12px ui-monospace, SFMono-Regular, monospace; fill: #2f271f; }
    .note { font: 13px ui-sans-serif, system-ui, sans-serif; fill: #5e4d3d; }
  </style>
  <rect width="1120" height="760" fill="#fbf8f1" />
  <text x="88" y="30" class="title">half_arc_terminal_lunar_reference</text>
  <text x="88" y="54" class="subtitle">Comparison reference · long-margin low-gravity baseline · gravity = 1.62m/s² (lunar)</text>
  <line x1="88" y1="676.0" x2="1076" y2="676.0" stroke="#e8dfd1" stroke-width="1" /><text x="74" y="680.0" text-anchor="end" class="axis-label">0m</text><line x1="88" y1="603.0" x2="1076" y2="603.0" stroke="#e8dfd1" stroke-width="1" /><text x="74" y="607.0" text-anchor="end" class="axis-label">100m</text><line x1="88" y1="530.0" x2="1076" y2="530.0" stroke="#e8dfd1" stroke-width="1" /><text x="74" y="534.0" text-anchor="end" class="axis-label">200m</text><line x1="88" y1="456.9" x2="1076" y2="456.9" stroke="#e8dfd1" stroke-width="1" /><text x="74" y="460.9" text-anchor="end" class="axis-label">300m</text><line x1="88" y1="383.9" x2="1076" y2="383.9" stroke="#e8dfd1" stroke-width="1" /><text x="74" y="387.9" text-anchor="end" class="axis-label">400m</text><line x1="88" y1="310.9" x2="1076" y2="310.9" stroke="#e8dfd1" stroke-width="1" /><text x="74" y="314.9" text-anchor="end" class="axis-label">500m</text><line x1="88" y1="237.9" x2="1076" y2="237.9" stroke="#e8dfd1" stroke-width="1" /><text x="74" y="241.9" text-anchor="end" class="axis-label">600m</text><line x1="88" y1="164.8" x2="1076" y2="164.8" stroke="#e8dfd1" stroke-width="1" /><text x="74" y="168.8" text-anchor="end" class="axis-label">700m</text><line x1="88" y1="91.8" x2="1076" y2="91.8" stroke="#e8dfd1" stroke-width="1" /><text x="74" y="95.8" text-anchor="end" class="axis-label">800m</text><line x1="282.6" y1="48" x2="282.6" y2="676" stroke="#efe7da" stroke-width="1" /><text x="282.6" y="698" text-anchor="middle" class="axis-label">0m</text><line x1="355.6" y1="48" x2="355.6" y2="676" stroke="#efe7da" stroke-width="1" /><text x="355.6" y="698" text-anchor="middle" class="axis-label">100m</text><line x1="428.7" y1="48" x2="428.7" y2="676" stroke="#efe7da" stroke-width="1" /><text x="428.7" y="698" text-anchor="middle" class="axis-label">200m</text><line x1="501.7" y1="48" x2="501.7" y2="676" stroke="#efe7da" stroke-width="1" /><text x="501.7" y="698" text-anchor="middle" class="axis-label">300m</text><line x1="574.7" y1="48" x2="574.7" y2="676" stroke="#efe7da" stroke-width="1" /><text x="574.7" y="698" text-anchor="middle" class="axis-label">400m</text><line x1="647.7" y1="48" x2="647.7" y2="676" stroke="#efe7da" stroke-width="1" /><text x="647.7" y="698" text-anchor="middle" class="axis-label">500m</text><line x1="720.7" y1="48" x2="720.7" y2="676" stroke="#efe7da" stroke-width="1" /><text x="720.7" y="698" text-anchor="middle" class="axis-label">600m</text><line x1="793.8" y1="48" x2="793.8" y2="676" stroke="#efe7da" stroke-width="1" /><text x="793.8" y="698" text-anchor="middle" class="axis-label">700m</text><line x1="866.8" y1="48" x2="866.8" y2="676" stroke="#efe7da" stroke-width="1" /><text x="866.8" y="698" text-anchor="middle" class="axis-label">800m</text>
  <line x1="88" y1="676.0" x2="1076" y2="676.0" stroke="#5d5448" stroke-width="2.2" />
  <rect x="269.5" y="669.0" width="26.3" height="7" fill="#cab488" />
  <text x="288.6" y="664.0" class="note">target pad</text>
  <polyline points="282.6,91.8 282.6,99.5 282.6,107.3 282.6,115.2 282.6,123.2 282.6,131.2 282.6,139.2 282.6,147.4 282.6,155.6 282.6,163.9 282.6,172.2 282.6,180.6 282.6,189.1 282.6,197.6 282.6,206.3 282.6,214.9 282.6,223.7 282.6,232.5 282.6,241.4 282.6,250.4 282.6,259.4 282.6,268.5 282.6,277.6 282.6,286.9 282.6,296.2 282.6,305.5 282.6,314.9 282.6,324.4 282.6,334.0 282.6,343.6 282.6,353.4 282.6,363.1 282.6,373.0 282.6,382.9 282.6,392.8 282.6,402.9 282.6,413.0 282.6,423.2 282.6,433.4 282.6,443.7 282.6,454.1 282.6,464.6 282.6,475.1 282.6,485.7 282.6,496.3 282.6,507.0 282.6,517.8 282.6,528.7 282.6,539.6 282.6,550.6 282.6,561.7 282.6,572.8 282.6,584.0 282.6,595.2 282.6,606.6 282.6,618.0 282.6,629.4 282.6,641.0 282.6,652.6 282.6,664.3 282.6,676.0" fill="none" stroke="#c17c11" stroke-width="3.2" stroke-dasharray="8 6" stroke-linecap="round" stroke-linejoin="round" /><polyline points="282.6,91.8 282.6,100.3 282.6,108.8 282.6,117.3 282.6,125.9 282.6,134.5 282.6,143.2 282.6,151.9 282.6,160.7 282.6,169.5 282.6,178.3 282.6,187.2 282.6,196.1 282.6,205.1 282.6,214.1 282.6,223.2 282.6,232.3 282.6,241.4 282.6,250.6 282.6,259.9 282.6,269.2 282.6,278.5 282.6,287.9 282.6,297.3 282.6,306.7 282.6,316.2 282.6,325.8 282.6,335.3 282.6,345.0 282.6,354.6 282.6,364.4 282.6,374.1 282.6,383.9 282.6,393.8 282.6,403.6 282.6,413.6 282.6,423.6 282.6,433.6 282.6,443.6 282.6,453.7 282.6,463.9 282.6,474.1 282.6,484.3 282.6,494.6 282.6,504.9 282.6,515.3 282.6,525.7 282.6,536.1 282.6,546.6 282.6,557.2 282.6,567.8 282.6,578.4 282.6,589.1 282.6,599.8 282.6,610.5 282.6,621.3 282.6,632.2 282.6,643.1 282.6,654.0 282.6,665.0 282.6,676.0" fill="none" stroke="#1d70b8" stroke-width="3.2" stroke-linecap="round" stroke-linejoin="round" /><polyline points="282.6,91.8 282.6,100.8 282.6,109.9 282.6,118.9 282.6,128.0 282.6,137.1 282.6,146.3 282.6,155.4 282.6,164.6 282.6,173.8 282.6,183.1 282.6,192.3 282.6,201.6 282.6,210.9 282.6,220.3 282.6,229.6 282.6,239.0 282.6,248.4 282.6,257.8 282.6,267.3 282.6,276.8 282.6,286.3 282.6,295.8 282.6,305.4 282.6,314.9 282.6,324.5 282.6,334.2 282.6,343.8 282.6,353.5 282.6,363.2 282.6,372.9 282.6,382.7 282.6,392.4 282.6,402.2 282.6,412.0 282.6,421.9 282.6,431.8 282.6,441.7 282.6,451.6 282.6,461.5 282.6,471.5 282.6,481.5 282.6,491.5 282.6,501.5 282.6,511.6 282.6,521.7 282.6,531.8 282.6,542.0 282.6,552.1 282.6,562.3 282.6,572.5 282.6,582.8 282.6,593.0 282.6,603.3 282.6,613.6 282.6,624.0 282.6,634.3 282.6,644.7 282.6,655.1 282.6,665.5 282.6,676.0" fill="none" stroke="#a73d2a" stroke-width="3.2" stroke-dasharray="3 5" stroke-linecap="round" stroke-linejoin="round" /><polyline points="433.8,111.7 431.3,119.1 428.8,126.6 426.2,134.1 423.7,141.7 421.2,149.4 418.7,157.1 416.2,165.0 413.6,172.8 411.1,180.8 408.6,188.8 406.1,196.9 403.6,205.0 401.0,213.2 398.5,221.5 396.0,229.9 393.5,238.3 391.0,246.8 388.4,255.3 385.9,264.0 383.4,272.7 380.9,281.4 378.4,290.2 375.8,299.1 373.3,308.1 370.8,317.1 368.3,326.2 365.8,335.4 363.2,344.6 360.7,353.9 358.2,363.3 355.7,372.7 353.2,382.2 350.6,391.8 348.1,401.5 345.6,411.2 343.1,421.0 340.6,430.8 338.0,440.7 335.5,450.7 333.0,460.7 330.5,470.9 328.0,481.0 325.4,491.3 322.9,501.6 320.4,512.0 317.9,522.5 315.4,533.0 312.8,543.6 310.3,554.2 307.8,565.0 305.3,575.8 302.8,586.6 300.2,597.6 297.7,608.6 295.2,619.6 292.7,630.8 290.2,642.0 287.6,653.3 285.1,664.6 282.6,676.0" fill="none" stroke="#c17c11" stroke-width="3.2" stroke-dasharray="8 6" stroke-linecap="round" stroke-linejoin="round" /><polyline points="433.8,111.7 431.3,119.8 428.8,128.0 426.2,136.2 423.7,144.5 421.2,152.8 418.7,161.1 416.2,169.5 413.6,177.9 411.1,186.4 408.6,194.9 406.1,203.5 403.6,212.1 401.0,220.7 398.5,229.4 396.0,238.1 393.5,246.9 391.0,255.7 388.4,264.6 385.9,273.5 383.4,282.4 380.9,291.4 378.4,300.5 375.8,309.5 373.3,318.7 370.8,327.8 368.3,337.0 365.8,346.3 363.2,355.6 360.7,364.9 358.2,374.3 355.7,383.7 353.2,393.2 350.6,402.7 348.1,412.3 345.6,421.9 343.1,431.5 340.6,441.2 338.0,450.9 335.5,460.7 333.0,470.5 330.5,480.4 328.0,490.3 325.4,500.2 322.9,510.2 320.4,520.3 317.9,530.3 315.4,540.5 312.8,550.6 310.3,560.8 307.8,571.1 305.3,581.4 302.8,591.7 300.2,602.1 297.7,612.5 295.2,623.0 292.7,633.5 290.2,644.1 287.6,654.7 285.1,665.3 282.6,676.0" fill="none" stroke="#1d70b8" stroke-width="3.2" stroke-linecap="round" stroke-linejoin="round" /><polyline points="433.8,111.7 431.3,120.4 428.8,129.1 426.2,137.8 423.7,146.6 421.2,155.4 418.7,164.2 416.2,173.0 413.6,181.9 411.1,190.8 408.6,199.7 406.1,208.6 403.6,217.5 401.0,226.5 398.5,235.5 396.0,244.5 393.5,253.6 391.0,262.7 388.4,271.8 385.9,280.9 383.4,290.0 380.9,299.2 378.4,308.4 375.8,317.6 373.3,326.9 370.8,336.1 368.3,345.4 365.8,354.8 363.2,364.1 360.7,373.5 358.2,382.9 355.7,392.3 353.2,401.7 350.6,411.2 348.1,420.7 345.6,430.2 343.1,439.7 340.6,449.3 338.0,458.9 335.5,468.5 333.0,478.1 330.5,487.8 328.0,497.5 325.4,507.2 322.9,516.9 320.4,526.7 317.9,536.5 315.4,546.3 312.8,556.1 310.3,566.0 307.8,575.8 305.3,585.7 302.8,595.7 300.2,605.6 297.7,615.6 295.2,625.6 292.7,635.6 290.2,645.7 287.6,655.8 285.1,665.9 282.6,676.0" fill="none" stroke="#a73d2a" stroke-width="3.2" stroke-dasharray="3 5" stroke-linecap="round" stroke-linejoin="round" /><polyline points="574.7,170.1 569.8,176.6 565.0,183.2 560.1,189.8 555.2,196.5 550.4,203.3 545.5,210.1 540.6,217.0 535.8,224.0 530.9,231.1 526.0,238.2 521.1,245.3 516.3,252.5 511.4,259.8 506.5,267.2 501.7,274.6 496.8,282.1 491.9,289.7 487.1,297.3 482.2,305.0 477.3,312.7 472.5,320.5 467.6,328.4 462.7,336.4 457.9,344.4 453.0,352.5 448.1,360.6 443.3,368.8 438.4,377.1 433.5,385.4 428.7,393.8 423.8,402.3 418.9,410.8 414.0,419.4 409.2,428.0 404.3,436.8 399.4,445.6 394.6,454.4 389.7,463.3 384.8,472.3 380.0,481.4 375.1,490.5 370.2,499.7 365.4,508.9 360.5,518.2 355.6,527.6 350.8,537.0 345.9,546.5 341.0,556.1 336.2,565.7 331.3,575.4 326.4,585.2 321.6,595.0 316.7,604.9 311.8,614.9 306.9,624.9 302.1,635.0 297.2,645.1 292.3,655.4 287.5,665.7 282.6,676.0" fill="none" stroke="#c17c11" stroke-width="3.2" stroke-dasharray="8 6" stroke-linecap="round" stroke-linejoin="round" /><polyline points="574.7,170.1 569.8,177.3 565.0,184.5 560.1,191.8 555.2,199.2 550.4,206.5 545.5,213.9 540.6,221.4 535.8,228.9 530.9,236.4 526.0,244.0 521.1,251.6 516.3,259.3 511.4,267.0 506.5,274.7 501.7,282.5 496.8,290.4 491.9,298.2 487.1,306.1 482.2,314.1 477.3,322.1 472.5,330.1 467.6,338.2 462.7,346.3 457.9,354.5 453.0,362.7 448.1,370.9 443.3,379.2 438.4,387.5 433.5,395.9 428.7,404.3 423.8,412.8 418.9,421.3 414.0,429.8 409.2,438.4 404.3,447.0 399.4,455.7 394.6,464.4 389.7,473.1 384.8,481.9 380.0,490.7 375.1,499.6 370.2,508.5 365.4,517.5 360.5,526.4 355.6,535.5 350.8,544.6 345.9,553.7 341.0,562.8 336.2,572.0 331.3,581.3 326.4,590.6 321.6,599.9 316.7,609.3 311.8,618.7 306.9,628.1 302.1,637.6 297.2,647.1 292.3,656.7 287.5,666.3 282.6,676.0" fill="none" stroke="#1d70b8" stroke-width="3.2" stroke-linecap="round" stroke-linejoin="round" /><polyline points="574.7,170.1 569.8,177.8 565.0,185.6 560.1,193.4 555.2,201.2 550.4,209.0 545.5,216.9 540.6,224.8 535.8,232.7 530.9,240.6 526.0,248.6 521.1,256.5 516.3,264.5 511.4,272.5 506.5,280.6 501.7,288.7 496.8,296.8 491.9,304.9 487.1,313.0 482.2,321.2 477.3,329.4 472.5,337.6 467.6,345.8 462.7,354.1 457.9,362.3 453.0,370.6 448.1,379.0 443.3,387.3 438.4,395.7 433.5,404.1 428.7,412.5 423.8,421.0 418.9,429.4 414.0,437.9 409.2,446.4 404.3,455.0 399.4,463.5 394.6,472.1 389.7,480.7 384.8,489.3 380.0,498.0 375.1,506.7 370.2,515.4 365.4,524.1 360.5,532.9 355.6,541.6 350.8,550.4 345.9,559.2 341.0,568.1 336.2,576.9 331.3,585.8 326.4,594.7 321.6,603.7 316.7,612.6 311.8,621.6 306.9,630.6 302.1,639.7 297.2,648.7 292.3,657.8 287.5,666.9 282.6,676.0" fill="none" stroke="#a73d2a" stroke-width="3.2" stroke-dasharray="3 5" stroke-linecap="round" stroke-linejoin="round" /><polyline points="695.7,262.9 688.8,268.0 681.9,273.1 675.0,278.3 668.1,283.5 661.3,288.8 654.4,294.2 647.5,299.6 640.6,305.1 633.7,310.6 626.8,316.2 620.0,321.9 613.1,327.6 606.2,333.4 599.3,339.3 592.4,345.2 585.5,351.2 578.6,357.3 571.8,363.4 564.9,369.5 558.0,375.8 551.1,382.1 544.2,388.4 537.3,394.8 530.5,401.3 523.6,407.9 516.7,414.5 509.8,421.1 502.9,427.9 496.0,434.6 489.1,441.5 482.3,448.4 475.4,455.4 468.5,462.4 461.6,469.5 454.7,476.7 447.8,483.9 441.0,491.2 434.1,498.6 427.2,506.0 420.3,513.5 413.4,521.0 406.5,528.6 399.6,536.3 392.8,544.0 385.9,551.8 379.0,559.6 372.1,567.5 365.2,575.5 358.3,583.5 351.5,591.6 344.6,599.8 337.7,608.0 330.8,616.3 323.9,624.6 317.0,633.0 310.1,641.5 303.3,650.0 296.4,658.6 289.5,667.3 282.6,676.0" fill="none" stroke="#c17c11" stroke-width="3.2" stroke-dasharray="8 6" stroke-linecap="round" stroke-linejoin="round" /><polyline points="695.7,262.9 688.8,268.6 681.9,274.4 675.0,280.2 668.1,286.0 661.3,291.9 654.4,297.8 647.5,303.7 640.6,309.7 633.7,315.8 626.8,321.8 620.0,327.9 613.1,334.1 606.2,340.3 599.3,346.5 592.4,352.8 585.5,359.1 578.6,365.4 571.8,371.8 564.9,378.2 558.0,384.7 551.1,391.2 544.2,397.8 537.3,404.3 530.5,411.0 523.6,417.6 516.7,424.3 509.8,431.1 502.9,437.9 496.0,444.7 489.1,451.6 482.3,458.5 475.4,465.4 468.5,472.4 461.6,479.4 454.7,486.5 447.8,493.6 441.0,500.7 434.1,507.9 427.2,515.1 420.3,522.4 413.4,529.7 406.5,537.0 399.6,544.4 392.8,551.8 385.9,559.3 379.0,566.8 372.1,574.4 365.2,581.9 358.3,589.6 351.5,597.2 344.6,604.9 337.7,612.7 330.8,620.4 323.9,628.3 317.0,636.1 310.1,644.0 303.3,651.9 296.4,659.9 289.5,667.9 282.6,676.0" fill="none" stroke="#1d70b8" stroke-width="3.2" stroke-linecap="round" stroke-linejoin="round" /><polyline points="695.7,262.9 688.8,269.1 681.9,275.4 675.0,281.7 668.1,288.0 661.3,294.3 654.4,300.6 647.5,307.0 640.6,313.3 633.7,319.7 626.8,326.2 620.0,332.6 613.1,339.1 606.2,345.6 599.3,352.1 592.4,358.6 585.5,365.2 578.6,371.8 571.8,378.4 564.9,385.0 558.0,391.7 551.1,398.3 544.2,405.0 537.3,411.7 530.5,418.5 523.6,425.3 516.7,432.0 509.8,438.8 502.9,445.7 496.0,452.5 489.1,459.4 482.3,466.3 475.4,473.2 468.5,480.1 461.6,487.1 454.7,494.1 447.8,501.1 441.0,508.1 434.1,515.2 427.2,522.3 420.3,529.4 413.4,536.5 406.5,543.6 399.6,550.8 392.8,558.0 385.9,565.2 379.0,572.4 372.1,579.7 365.2,586.9 358.3,594.2 351.5,601.6 344.6,608.9 337.7,616.3 330.8,623.7 323.9,631.1 317.0,638.5 310.1,646.0 303.3,653.4 296.4,660.9 289.5,668.5 282.6,676.0" fill="none" stroke="#a73d2a" stroke-width="3.2" stroke-dasharray="3 5" stroke-linecap="round" stroke-linejoin="round" /><polyline points="788.5,383.9 780.1,387.1 771.7,390.4 763.2,393.7 754.8,397.0 746.4,400.5 737.9,403.9 729.5,407.5 721.1,411.1 712.6,414.7 704.2,418.4 695.8,422.2 687.3,426.0 678.9,429.9 670.5,433.8 662.0,437.8 653.6,441.9 645.2,446.0 636.7,450.1 628.3,454.4 619.9,458.6 611.5,463.0 603.0,467.3 594.6,471.8 586.2,476.3 577.7,480.8 569.3,485.5 560.9,490.1 552.4,494.9 544.0,499.6 535.6,504.5 527.1,509.4 518.7,514.3 510.3,519.3 501.8,524.4 493.4,529.5 485.0,534.7 476.5,539.9 468.1,545.2 459.7,550.6 451.2,556.0 442.8,561.5 434.4,567.0 425.9,572.6 417.5,578.2 409.1,583.9 400.7,589.6 392.2,595.4 383.8,601.3 375.4,607.2 366.9,613.2 358.5,619.2 350.1,625.3 341.6,631.4 333.2,637.6 324.8,643.9 316.3,650.2 307.9,656.6 299.5,663.0 291.0,669.5 282.6,676.0" fill="none" stroke="#c17c11" stroke-width="3.2" stroke-dasharray="8 6" stroke-linecap="round" stroke-linejoin="round" /><polyline points="788.5,383.9 780.1,387.7 771.7,391.5 763.2,395.4 754.8,399.3 746.4,403.3 737.9,407.2 729.5,411.3 721.1,415.3 712.6,419.4 704.2,423.5 695.8,427.7 687.3,431.9 678.9,436.1 670.5,440.4 662.0,444.7 653.6,449.0 645.2,453.4 636.7,457.8 628.3,462.3 619.9,466.8 611.5,471.3 603.0,475.9 594.6,480.5 586.2,485.1 577.7,489.8 569.3,494.5 560.9,499.2 552.4,504.0 544.0,508.8 535.6,513.7 527.1,518.5 518.7,523.5 510.3,528.4 501.8,533.4 493.4,538.4 485.0,543.5 476.5,548.6 468.1,553.8 459.7,558.9 451.2,564.1 442.8,569.4 434.4,574.7 425.9,580.0 417.5,585.4 409.1,590.7 400.7,596.2 392.2,601.6 383.8,607.1 375.4,612.7 366.9,618.3 358.5,623.9 350.1,629.5 341.6,635.2 333.2,640.9 324.8,646.7 316.3,652.5 307.9,658.3 299.5,664.2 291.0,670.1 282.6,676.0" fill="none" stroke="#1d70b8" stroke-width="3.2" stroke-linecap="round" stroke-linejoin="round" /><polyline points="788.5,383.9 780.1,388.2 771.7,392.5 763.2,396.8 754.8,401.1 746.4,405.4 737.9,409.8 729.5,414.2 721.1,418.6 712.6,423.0 704.2,427.5 695.8,432.0 687.3,436.5 678.9,441.0 670.5,445.5 662.0,450.1 653.6,454.6 645.2,459.2 636.7,463.8 628.3,468.5 619.9,473.1 611.5,477.8 603.0,482.5 594.6,487.2 586.2,491.9 577.7,496.7 569.3,501.5 560.9,506.3 552.4,511.1 544.0,515.9 535.6,520.8 527.1,525.7 518.7,530.6 510.3,535.5 501.8,540.4 493.4,545.4 485.0,550.4 476.5,555.4 468.1,560.4 459.7,565.4 451.2,570.5 442.8,575.6 434.4,580.7 425.9,585.8 417.5,590.9 409.1,596.1 400.7,601.3 392.2,606.5 383.8,611.7 375.4,617.0 366.9,622.2 358.5,627.5 350.1,632.8 341.6,638.1 333.2,643.5 324.8,648.9 316.3,654.2 307.9,659.7 299.5,665.1 291.0,670.5 282.6,676.0" fill="none" stroke="#a73d2a" stroke-width="3.2" stroke-dasharray="3 5" stroke-linecap="round" stroke-linejoin="round" /><polyline points="831.6,476.2 822.4,478.0 813.3,479.9 804.1,481.8 795.0,483.8 785.8,485.8 776.7,487.9 767.5,490.0 758.4,492.2 749.2,494.4 740.1,496.7 730.9,499.0 721.8,501.4 712.6,503.8 703.5,506.3 694.3,508.8 685.2,511.4 676.0,514.0 666.9,516.7 657.7,519.5 648.6,522.3 639.4,525.1 630.3,528.0 621.1,530.9 612.0,533.9 602.8,537.0 593.7,540.1 584.5,543.2 575.4,546.4 566.2,549.7 557.1,553.0 547.9,556.3 538.8,559.8 529.6,563.2 520.5,566.7 511.3,570.3 502.2,573.9 493.0,577.6 483.9,581.3 474.7,585.0 465.6,588.9 456.4,592.7 447.3,596.7 438.1,600.6 429.0,604.6 419.8,608.7 410.7,612.8 401.5,617.0 392.4,621.3 383.2,625.5 374.1,629.9 364.9,634.2 355.8,638.7 346.6,643.2 337.5,647.7 328.4,652.3 319.2,656.9 310.1,661.6 300.9,666.4 291.8,671.2 282.6,676.0" fill="none" stroke="#c17c11" stroke-width="3.2" stroke-dasharray="8 6" stroke-linecap="round" stroke-linejoin="round" /><polyline points="831.6,476.2 822.4,478.6 813.3,481.0 804.1,483.4 795.0,485.8 785.8,488.3 776.7,490.9 767.5,493.4 758.4,496.0 749.2,498.6 740.1,501.3 730.9,504.0 721.8,506.7 712.6,509.4 703.5,512.2 694.3,515.1 685.2,517.9 676.0,520.8 666.9,523.7 657.7,526.7 648.6,529.7 639.4,532.7 630.3,535.7 621.1,538.8 612.0,541.9 602.8,545.1 593.7,548.3 584.5,551.5 575.4,554.7 566.2,558.0 557.1,561.3 547.9,564.7 538.8,568.0 529.6,571.4 520.5,574.9 511.3,578.4 502.2,581.9 493.0,585.4 483.9,589.0 474.7,592.6 465.6,596.3 456.4,599.9 447.3,603.6 438.1,607.4 429.0,611.2 419.8,615.0 410.7,618.8 401.5,622.7 392.4,626.6 383.2,630.5 374.1,634.5 364.9,638.5 355.8,642.5 346.6,646.6 337.5,650.7 328.4,654.8 319.2,659.0 310.1,663.2 300.9,667.4 291.8,671.7 282.6,676.0" fill="none" stroke="#1d70b8" stroke-width="3.2" stroke-linecap="round" stroke-linejoin="round" /><polyline points="831.6,476.2 822.4,479.0 813.3,481.8 804.1,484.6 795.0,487.4 785.8,490.3 776.7,493.2 767.5,496.1 758.4,499.0 749.2,501.9 740.1,504.9 730.9,507.8 721.8,510.8 712.6,513.8 703.5,516.9 694.3,519.9 685.2,523.0 676.0,526.1 666.9,529.2 657.7,532.3 648.6,535.4 639.4,538.6 630.3,541.7 621.1,544.9 612.0,548.1 602.8,551.4 593.7,554.6 584.5,557.9 575.4,561.2 566.2,564.5 557.1,567.8 547.9,571.1 538.8,574.5 529.6,577.9 520.5,581.2 511.3,584.7 502.2,588.1 493.0,591.5 483.9,595.0 474.7,598.5 465.6,602.0 456.4,605.5 447.3,609.1 438.1,612.6 429.0,616.2 419.8,619.8 410.7,623.4 401.5,627.1 392.4,630.7 383.2,634.4 374.1,638.1 364.9,641.8 355.8,645.5 346.6,649.3 337.5,653.0 328.4,656.8 319.2,660.6 310.1,664.4 300.9,668.3 291.8,672.1 282.6,676.0" fill="none" stroke="#a73d2a" stroke-width="3.2" stroke-dasharray="3 5" stroke-linecap="round" stroke-linejoin="round" /><polyline points="857.9,574.6 848.3,574.9 838.7,575.3 829.2,575.7 819.6,576.1 810.0,576.6 800.4,577.2 790.8,577.8 781.2,578.4 771.6,579.1 762.0,579.9 752.4,580.7 742.9,581.5 733.3,582.4 723.7,583.3 714.1,584.3 704.5,585.3 694.9,586.4 685.3,587.5 675.7,588.6 666.1,589.8 656.6,591.1 647.0,592.4 637.4,593.7 627.8,595.1 618.2,596.6 608.6,598.0 599.0,599.6 589.4,601.1 579.8,602.8 570.3,604.4 560.7,606.1 551.1,607.9 541.5,609.7 531.9,611.6 522.3,613.5 512.7,615.4 503.1,617.4 493.6,619.4 484.0,621.5 474.4,623.7 464.8,625.8 455.2,628.1 445.6,630.3 436.0,632.6 426.4,635.0 416.8,637.4 407.3,639.9 397.7,642.4 388.1,644.9 378.5,647.5 368.9,650.1 359.3,652.8 349.7,655.6 340.1,658.3 330.5,661.2 321.0,664.0 311.4,667.0 301.8,669.9 292.2,672.9 282.6,676.0" fill="none" stroke="#c17c11" stroke-width="3.2" stroke-dasharray="8 6" stroke-linecap="round" stroke-linejoin="round" /><polyline points="857.9,574.6 848.3,575.4 838.7,576.2 829.2,577.1 819.6,578.0 810.0,578.9 800.4,579.9 790.8,580.9 781.2,581.9 771.6,583.0 762.0,584.1 752.4,585.2 742.9,586.3 733.3,587.5 723.7,588.7 714.1,589.9 704.5,591.2 694.9,592.5 685.3,593.8 675.7,595.1 666.1,596.5 656.6,597.9 647.0,599.4 637.4,600.8 627.8,602.3 618.2,603.9 608.6,605.4 599.0,607.0 589.4,608.6 579.8,610.3 570.3,611.9 560.7,613.6 551.1,615.4 541.5,617.1 531.9,618.9 522.3,620.8 512.7,622.6 503.1,624.5 493.6,626.4 484.0,628.4 474.4,630.3 464.8,632.3 455.2,634.4 445.6,636.4 436.0,638.5 426.4,640.6 416.8,642.8 407.3,645.0 397.7,647.2 388.1,649.4 378.5,651.7 368.9,654.0 359.3,656.3 349.7,658.7 340.1,661.1 330.5,663.5 321.0,665.9 311.4,668.4 301.8,670.9 292.2,673.4 282.6,676.0" fill="none" stroke="#1d70b8" stroke-width="3.2" stroke-linecap="round" stroke-linejoin="round" /><polyline points="857.9,574.6 848.3,575.8 838.7,577.0 829.2,578.2 819.6,579.5 810.0,580.7 800.4,582.0 790.8,583.3 781.2,584.6 771.6,585.9 762.0,587.3 752.4,588.7 742.9,590.0 733.3,591.4 723.7,592.9 714.1,594.3 704.5,595.7 694.9,597.2 685.3,598.7 675.7,600.2 666.1,601.7 656.6,603.2 647.0,604.8 637.4,606.3 627.8,607.9 618.2,609.5 608.6,611.1 599.0,612.8 589.4,614.4 579.8,616.1 570.3,617.8 560.7,619.5 551.1,621.2 541.5,622.9 531.9,624.7 522.3,626.4 512.7,628.2 503.1,630.0 493.6,631.8 484.0,633.7 474.4,635.5 464.8,637.4 455.2,639.3 445.6,641.2 436.0,643.1 426.4,645.0 416.8,647.0 407.3,648.9 397.7,650.9 388.1,652.9 378.5,654.9 368.9,657.0 359.3,659.0 349.7,661.1 340.1,663.2 330.5,665.3 321.0,667.4 311.4,669.5 301.8,671.7 292.2,673.8 282.6,676.0" fill="none" stroke="#a73d2a" stroke-width="3.2" stroke-dasharray="3 5" stroke-linecap="round" stroke-linejoin="round" />
  <circle cx="282.6" cy="91.8" r="4.5" fill="#1f1a14" /><text x="290.6" y="81.8" class="arc-label">a00</text><circle cx="433.8" cy="111.7" r="4.5" fill="#1f1a14" /><text x="441.8" y="101.7" class="arc-label">a15</text><circle cx="574.7" cy="170.1" r="4.5" fill="#1f1a14" /><text x="582.7" y="160.1" class="arc-label">a30</text><circle cx="695.7" cy="262.9" r="4.5" fill="#1f1a14" /><text x="703.7" y="252.9" class="arc-label">a45</text><circle cx="788.5" cy="383.9" r="4.5" fill="#1f1a14" /><text x="796.5" y="373.9" class="arc-label">a60</text><circle cx="831.6" cy="476.2" r="4.5" fill="#1f1a14" /><text x="839.6" y="466.2" class="arc-label">a70</text><circle cx="857.9" cy="574.6" r="4.5" fill="#1f1a14" /><text x="865.9" y="564.6" class="arc-label">a80</text>
  <rect x="888" y="64" width="180" height="108" rx="12" fill="#fffaf1" stroke="#dcc9ab" stroke-width="1.2" /><text x="904" y="86" class="legend-title">Band Legend</text><line x1="904" y1="106" x2="940" y2="106" stroke="#c17c11" stroke-width="3.2" stroke-dasharray="8 6" stroke-linecap="round" /><text x="950" y="111" class="legend-label">low</text><line x1="904" y1="128" x2="940" y2="128" stroke="#1d70b8" stroke-width="3.2" stroke-linecap="round" /><text x="950" y="133" class="legend-label">mid</text><line x1="904" y1="150" x2="940" y2="150" stroke="#a73d2a" stroke-width="3.2" stroke-dasharray="3 5" stroke-linecap="round" /><text x="950" y="155" class="legend-label">high</text>
  <text x="88" y="734" class="note">Bands are solved from time-to-go. Low is clamped so shallow cells stay descending instead of starting upward.</text>
</svg>
