<svg xmlns="http://www.w3.org/2000/svg" width="1120" height="760" viewBox="0 0 1120 760" role="img" aria-labelledby="title desc">
  <title id="title">Half Arc Terminal V1</title>
  <desc id="desc">One-sided terminal arrival family at 800 meter radius with low, mid, and high time-to-go bands.</desc>
  <style>
    .title { font: 700 28px ui-sans-serif, system-ui, sans-serif; fill: #1f1a14; }
    .subtitle { font: 500 15px ui-sans-serif, system-ui, sans-serif; fill: #6d5844; }
    .axis-label { font: 12px ui-monospace, SFMono-Regular, monospace; fill: #7b6a59; }
    .legend-title { font: 700 14px ui-sans-serif, system-ui, sans-serif; fill: #2f271f; }
    .legend-label { font: 13px ui-sans-serif, system-ui, sans-serif; fill: #3d3329; }
    .arc-label { font: 600 12px ui-monospace, SFMono-Regular, monospace; fill: #2f271f; }
    .note { font: 13px ui-sans-serif, system-ui, sans-serif; fill: #5e4d3d; }
  </style>
  <rect width="1120" height="760" fill="#fbf8f1" />
  <text x="88" y="30" class="title">half_arc_terminal_v1</text>
  <text x="88" y="54" class="subtitle">One-sided terminal arrival geometry · radius = 800m · gravity = 1.62m/s²</text>
  <line x1="88" y1="676.0" x2="1076" y2="676.0" stroke="#e8dfd1" stroke-width="1" /><text x="74" y="680.0" text-anchor="end" class="axis-label">0m</text><line x1="88" y1="603.0" x2="1076" y2="603.0" stroke="#e8dfd1" stroke-width="1" /><text x="74" y="607.0" text-anchor="end" class="axis-label">100m</text><line x1="88" y1="530.0" x2="1076" y2="530.0" stroke="#e8dfd1" stroke-width="1" /><text x="74" y="534.0" text-anchor="end" class="axis-label">200m</text><line x1="88" y1="456.9" x2="1076" y2="456.9" stroke="#e8dfd1" stroke-width="1" /><text x="74" y="460.9" text-anchor="end" class="axis-label">300m</text><line x1="88" y1="383.9" x2="1076" y2="383.9" stroke="#e8dfd1" stroke-width="1" /><text x="74" y="387.9" text-anchor="end" class="axis-label">400m</text><line x1="88" y1="310.9" x2="1076" y2="310.9" stroke="#e8dfd1" stroke-width="1" /><text x="74" y="314.9" text-anchor="end" class="axis-label">500m</text><line x1="88" y1="237.9" x2="1076" y2="237.9" stroke="#e8dfd1" stroke-width="1" /><text x="74" y="241.9" text-anchor="end" class="axis-label">600m</text><line x1="88" y1="164.8" x2="1076" y2="164.8" stroke="#e8dfd1" stroke-width="1" /><text x="74" y="168.8" text-anchor="end" class="axis-label">700m</text><line x1="88" y1="91.8" x2="1076" y2="91.8" stroke="#e8dfd1" stroke-width="1" /><text x="74" y="95.8" text-anchor="end" class="axis-label">800m</text><line x1="131.9" y1="48" x2="131.9" y2="676" stroke="#efe7da" stroke-width="1" /><text x="131.9" y="698" text-anchor="middle" class="axis-label">0m</text><line x1="241.7" y1="48" x2="241.7" y2="676" stroke="#efe7da" stroke-width="1" /><text x="241.7" y="698" text-anchor="middle" class="axis-label">100m</text><line x1="351.5" y1="48" x2="351.5" y2="676" stroke="#efe7da" stroke-width="1" /><text x="351.5" y="698" text-anchor="middle" class="axis-label">200m</text><line x1="461.2" y1="48" x2="461.2" y2="676" stroke="#efe7da" stroke-width="1" /><text x="461.2" y="698" text-anchor="middle" class="axis-label">300m</text><line x1="571.0" y1="48" x2="571.0" y2="676" stroke="#efe7da" stroke-width="1" /><text x="571.0" y="698" text-anchor="middle" class="axis-label">400m</text><line x1="680.8" y1="48" x2="680.8" y2="676" stroke="#efe7da" stroke-width="1" /><text x="680.8" y="698" text-anchor="middle" class="axis-label">500m</text><line x1="790.6" y1="48" x2="790.6" y2="676" stroke="#efe7da" stroke-width="1" /><text x="790.6" y="698" text-anchor="middle" class="axis-label">600m</text><line x1="900.4" y1="48" x2="900.4" y2="676" stroke="#efe7da" stroke-width="1" /><text x="900.4" y="698" text-anchor="middle" class="axis-label">700m</text><line x1="1010.1" y1="48" x2="1010.1" y2="676" stroke="#efe7da" stroke-width="1" /><text x="1010.1" y="698" text-anchor="middle" class="axis-label">800m</text>
  <line x1="88" y1="676.0" x2="1076" y2="676.0" stroke="#5d5448" stroke-width="2.2" />
  <rect x="112.2" y="669.0" width="39.5" height="7" fill="#cab488" />
  <text x="137.9" y="664.0" class="note">target pad</text>
  <polyline points="131.9,91.8 131.9,100.2 131.9,108.6 131.9,117.1 131.9,125.6 131.9,134.2 131.9,142.8 131.9,151.5 131.9,160.2 131.9,168.9 131.9,177.7 131.9,186.6 131.9,195.4 131.9,204.4 131.9,213.4 131.9,222.4 131.9,231.5 131.9,240.6 131.9,249.7 131.9,258.9 131.9,268.2 131.9,277.5 131.9,286.8 131.9,296.2 131.9,305.7 131.9,315.2 131.9,324.7 131.9,334.3 131.9,343.9 131.9,353.6 131.9,363.3 131.9,373.0 131.9,382.8 131.9,392.7 131.9,402.6 131.9,412.5 131.9,422.5 131.9,432.6 131.9,442.6 131.9,452.8 131.9,462.9 131.9,473.1 131.9,483.4 131.9,493.7 131.9,504.1 131.9,514.5 131.9,524.9 131.9,535.4 131.9,546.0 131.9,556.5 131.9,567.2 131.9,577.8 131.9,588.6 131.9,599.3 131.9,610.2 131.9,621.0 131.9,631.9 131.9,642.9 131.9,653.9 131.9,664.9 131.9,676.0" fill="none" stroke="#c17c11" stroke-width="3.2" stroke-dasharray="8 6" stroke-linecap="round" stroke-linejoin="round" /><polyline points="131.9,91.8 131.9,100.5 131.9,109.2 131.9,117.9 131.9,126.7 131.9,135.5 131.9,144.4 131.9,153.2 131.9,162.2 131.9,171.1 131.9,180.1 131.9,189.2 131.9,198.2 131.9,207.3 131.9,216.5 131.9,225.6 131.9,234.8 131.9,244.1 131.9,253.4 131.9,262.7 131.9,272.1 131.9,281.4 131.9,290.9 131.9,300.3 131.9,309.8 131.9,319.4 131.9,328.9 131.9,338.6 131.9,348.2 131.9,357.9 131.9,367.6 131.9,377.4 131.9,387.1 131.9,397.0 131.9,406.8 131.9,416.7 131.9,426.7 131.9,436.6 131.9,446.7 131.9,456.7 131.9,466.8 131.9,476.9 131.9,487.0 131.9,497.2 131.9,507.5 131.9,517.7 131.9,528.0 131.9,538.4 131.9,548.7 131.9,559.1 131.9,569.6 131.9,580.1 131.9,590.6 131.9,601.1 131.9,611.7 131.9,622.3 131.9,633.0 131.9,643.7 131.9,654.4 131.9,665.2 131.9,676.0" fill="none" stroke="#1d70b8" stroke-width="3.2" stroke-linecap="round" stroke-linejoin="round" /><polyline points="131.9,91.8 131.9,100.7 131.9,109.7 131.9,118.7 131.9,127.7 131.9,136.7 131.9,145.7 131.9,154.8 131.9,163.9 131.9,173.1 131.9,182.2 131.9,191.4 131.9,200.7 131.9,209.9 131.9,219.2 131.9,228.5 131.9,237.8 131.9,247.2 131.9,256.6 131.9,266.0 131.9,275.4 131.9,284.9 131.9,294.4 131.9,303.9 131.9,313.5 131.9,323.1 131.9,332.7 131.9,342.3 131.9,352.0 131.9,361.7 131.9,371.4 131.9,381.2 131.9,391.0 131.9,400.8 131.9,410.6 131.9,420.5 131.9,430.3 131.9,440.3 131.9,450.2 131.9,460.2 131.9,470.2 131.9,480.2 131.9,490.3 131.9,500.3 131.9,510.5 131.9,520.6 131.9,530.8 131.9,541.0 131.9,551.2 131.9,561.4 131.9,571.7 131.9,582.0 131.9,592.3 131.9,602.7 131.9,613.1 131.9,623.5 131.9,633.9 131.9,644.4 131.9,654.9 131.9,665.4 131.9,676.0" fill="none" stroke="#a73d2a" stroke-width="3.2" stroke-dasharray="3 5" stroke-linecap="round" stroke-linejoin="round" /><polyline points="359.2,111.7 355.4,119.8 351.6,127.9 347.8,136.0 344.1,144.2 340.3,152.4 336.5,160.7 332.7,169.0 328.9,177.4 325.1,185.8 321.3,194.3 317.5,202.8 313.8,211.4 310.0,220.0 306.2,228.6 302.4,237.3 298.6,246.1 294.8,254.8 291.0,263.7 287.2,272.5 283.4,281.5 279.7,290.4 275.9,299.5 272.1,308.5 268.3,317.6 264.5,326.8 260.7,336.0 256.9,345.2 253.1,354.5 249.3,363.8 245.6,373.2 241.8,382.7 238.0,392.1 234.2,401.6 230.4,411.2 226.6,420.8 222.8,430.5 219.0,440.2 215.3,449.9 211.5,459.7 207.7,469.6 203.9,479.5 200.1,489.4 196.3,499.4 192.5,509.4 188.7,519.5 184.9,529.6 181.2,539.7 177.4,549.9 173.6,560.2 169.8,570.5 166.0,580.8 162.2,591.2 158.4,601.7 154.6,612.1 150.9,622.7 147.1,633.2 143.3,643.9 139.5,654.5 135.7,665.2 131.9,676.0" fill="none" stroke="#c17c11" stroke-width="3.2" stroke-dasharray="8 6" stroke-linecap="round" stroke-linejoin="round" /><polyline points="359.2,111.7 355.4,120.1 351.6,128.4 347.8,136.8 344.1,145.3 340.3,153.8 336.5,162.3 332.7,170.8 328.9,179.4 325.1,188.0 321.3,196.7 317.5,205.4 313.8,214.1 310.0,222.9 306.2,231.7 302.4,240.6 298.6,249.4 294.8,258.4 291.0,267.3 287.2,276.3 283.4,285.3 279.7,294.4 275.9,303.5 272.1,312.6 268.3,321.8 264.5,331.0 260.7,340.2 256.9,349.5 253.1,358.8 249.3,368.2 245.6,377.6 241.8,387.0 238.0,396.4 234.2,405.9 230.4,415.5 226.6,425.0 222.8,434.6 219.0,444.3 215.3,454.0 211.5,463.7 207.7,473.4 203.9,483.2 200.1,493.0 196.3,502.9 192.5,512.8 188.7,522.7 184.9,532.7 181.2,542.7 177.4,552.7 173.6,562.8 169.8,572.9 166.0,583.0 162.2,593.2 158.4,603.4 154.6,613.7 150.9,624.0 147.1,634.3 143.3,644.7 139.5,655.1 135.7,665.5 131.9,676.0" fill="none" stroke="#1d70b8" stroke-width="3.2" stroke-linecap="round" stroke-linejoin="round" /><polyline points="359.2,111.7 355.4,120.3 351.6,128.9 347.8,137.6 344.1,146.2 340.3,154.9 336.5,163.7 332.7,172.4 328.9,181.2 325.1,190.0 321.3,198.8 317.5,207.7 313.8,216.6 310.0,225.5 306.2,234.5 302.4,243.4 298.6,252.4 294.8,261.5 291.0,270.5 287.2,279.6 283.4,288.7 279.7,297.9 275.9,307.0 272.1,316.2 268.3,325.4 264.5,334.7 260.7,344.0 256.9,353.3 253.1,362.6 249.3,372.0 245.6,381.4 241.8,390.8 238.0,400.2 234.2,409.7 230.4,419.2 226.6,428.7 222.8,438.3 219.0,447.9 215.3,457.5 211.5,467.1 207.7,476.8 203.9,486.5 200.1,496.2 196.3,506.0 192.5,515.8 188.7,525.6 184.9,535.4 181.2,545.3 177.4,555.2 173.6,565.1 169.8,575.0 166.0,585.0 162.2,595.0 158.4,605.0 154.6,615.1 150.9,625.2 147.1,635.3 143.3,645.4 139.5,655.6 135.7,665.8 131.9,676.0" fill="none" stroke="#a73d2a" stroke-width="3.2" stroke-dasharray="3 5" stroke-linecap="round" stroke-linejoin="round" /><polyline points="571.0,170.1 563.7,177.2 556.4,184.4 549.1,191.6 541.7,198.9 534.4,206.2 527.1,213.6 519.8,221.0 512.5,228.4 505.2,235.9 497.8,243.5 490.5,251.1 483.2,258.7 475.9,266.3 468.6,274.1 461.2,281.8 453.9,289.6 446.6,297.5 439.3,305.3 432.0,313.3 424.7,321.2 417.3,329.3 410.0,337.3 402.7,345.4 395.4,353.6 388.1,361.8 380.7,370.0 373.4,378.3 366.1,386.6 358.8,395.0 351.5,403.4 344.1,411.8 336.8,420.3 329.5,428.9 322.2,437.5 314.9,446.1 307.6,454.8 300.2,463.5 292.9,472.2 285.6,481.0 278.3,489.9 271.0,498.8 263.6,507.7 256.3,516.7 249.0,525.7 241.7,534.8 234.4,543.9 227.1,553.0 219.7,562.2 212.4,571.5 205.1,580.8 197.8,590.1 190.5,599.5 183.1,608.9 175.8,618.3 168.5,627.8 161.2,637.4 153.9,647.0 146.5,656.6 139.2,666.3 131.9,676.0" fill="none" stroke="#c17c11" stroke-width="3.2" stroke-dasharray="8 6" stroke-linecap="round" stroke-linejoin="round" /><polyline points="571.0,170.1 563.7,177.5 556.4,184.9 549.1,192.4 541.7,199.9 534.4,207.5 527.1,215.1 519.8,222.7 512.5,230.4 505.2,238.0 497.8,245.8 490.5,253.5 483.2,261.3 475.9,269.1 468.6,277.0 461.2,284.9 453.9,292.8 446.6,300.8 439.3,308.8 432.0,316.8 424.7,324.9 417.3,333.0 410.0,341.2 402.7,349.3 395.4,357.5 388.1,365.8 380.7,374.1 373.4,382.4 366.1,390.7 358.8,399.1 351.5,407.5 344.1,416.0 336.8,424.4 329.5,433.0 322.2,441.5 314.9,450.1 307.6,458.7 300.2,467.4 292.9,476.1 285.6,484.8 278.3,493.6 271.0,502.3 263.6,511.2 256.3,520.0 249.0,528.9 241.7,537.9 234.4,546.8 227.1,555.8 219.7,564.9 212.4,573.9 205.1,583.0 197.8,592.2 190.5,601.4 183.1,610.6 175.8,619.8 168.5,629.1 161.2,638.4 153.9,647.8 146.5,657.1 139.2,666.5 131.9,676.0" fill="none" stroke="#1d70b8" stroke-width="3.2" stroke-linecap="round" stroke-linejoin="round" /><polyline points="571.0,170.1 563.7,177.7 556.4,185.4 549.1,193.1 541.7,200.8 534.4,208.6 527.1,216.4 519.8,224.2 512.5,232.0 505.2,239.9 497.8,247.8 490.5,255.7 483.2,263.7 475.9,271.6 468.6,279.6 461.2,287.6 453.9,295.7 446.6,303.8 439.3,311.9 432.0,320.0 424.7,328.1 417.3,336.3 410.0,344.5 402.7,352.8 395.4,361.0 388.1,369.3 380.7,377.6 373.4,386.0 366.1,394.3 358.8,402.7 351.5,411.1 344.1,419.6 336.8,428.1 329.5,436.6 322.2,445.1 314.9,453.6 307.6,462.2 300.2,470.8 292.9,479.4 285.6,488.1 278.3,496.8 271.0,505.5 263.6,514.2 256.3,523.0 249.0,531.8 241.7,540.6 234.4,549.4 227.1,558.3 219.7,567.2 212.4,576.1 205.1,585.1 197.8,594.0 190.5,603.0 183.1,612.1 175.8,621.1 168.5,630.2 161.2,639.3 153.9,648.4 146.5,657.6 139.2,666.8 131.9,676.0" fill="none" stroke="#a73d2a" stroke-width="3.2" stroke-dasharray="3 5" stroke-linecap="round" stroke-linejoin="round" /><polyline points="752.9,262.9 742.6,268.6 732.2,274.3 721.9,280.0 711.5,285.8 701.2,291.6 690.8,297.5 680.5,303.4 670.1,309.3 659.8,315.3 649.4,321.4 639.1,327.4 628.7,333.6 618.4,339.7 608.0,345.9 597.7,352.2 587.3,358.4 577.0,364.8 566.6,371.1 556.3,377.5 545.9,384.0 535.6,390.5 525.2,397.0 514.9,403.6 504.5,410.2 494.2,416.8 483.8,423.5 473.5,430.3 463.1,437.1 452.8,443.9 442.4,450.7 432.1,457.6 421.7,464.6 411.4,471.6 401.0,478.6 390.7,485.7 380.3,492.8 370.0,500.0 359.6,507.2 349.3,514.4 338.9,521.7 328.6,529.0 318.2,536.4 307.9,543.8 297.5,551.2 287.2,558.7 276.8,566.2 266.5,573.8 256.1,581.4 245.8,589.1 235.4,596.8 225.1,604.5 214.7,612.3 204.4,620.1 194.0,628.0 183.7,635.9 173.3,643.8 163.0,651.8 152.6,659.8 142.3,667.9 131.9,676.0" fill="none" stroke="#c17c11" stroke-width="3.2" stroke-dasharray="8 6" stroke-linecap="round" stroke-linejoin="round" /><polyline points="752.9,262.9 742.6,268.8 732.2,274.8 721.9,280.8 711.5,286.8 701.2,292.8 690.8,298.9 680.5,305.0 670.1,311.2 659.8,317.3 649.4,323.5 639.1,329.8 628.7,336.1 618.4,342.4 608.0,348.7 597.7,355.1 587.3,361.5 577.0,367.9 566.6,374.4 556.3,380.9 545.9,387.5 535.6,394.0 525.2,400.6 514.9,407.3 504.5,414.0 494.2,420.7 483.8,427.4 473.5,434.2 463.1,441.0 452.8,447.8 442.4,454.7 432.1,461.6 421.7,468.5 411.4,475.5 401.0,482.5 390.7,489.5 380.3,496.6 370.0,503.7 359.6,510.8 349.3,518.0 338.9,525.2 328.6,532.4 318.2,539.7 307.9,546.9 297.5,554.3 287.2,561.6 276.8,569.0 266.5,576.5 256.1,583.9 245.8,591.4 235.4,598.9 225.1,606.5 214.7,614.1 204.4,621.7 194.0,629.4 183.7,637.1 173.3,644.8 163.0,652.5 152.6,660.3 142.3,668.1 131.9,676.0" fill="none" stroke="#1d70b8" stroke-width="3.2" stroke-linecap="round" stroke-linejoin="round" /><polyline points="752.9,262.9 742.6,269.1 732.2,275.2 721.9,281.4 711.5,287.6 701.2,293.9 690.8,300.2 680.5,306.4 670.1,312.8 659.8,319.1 649.4,325.5 639.1,331.9 628.7,338.3 618.4,344.7 608.0,351.2 597.7,357.7 587.3,364.2 577.0,370.8 566.6,377.3 556.3,383.9 545.9,390.5 535.6,397.2 525.2,403.9 514.9,410.6 504.5,417.3 494.2,424.0 483.8,430.8 473.5,437.6 463.1,444.4 452.8,451.3 442.4,458.1 432.1,465.0 421.7,472.0 411.4,478.9 401.0,485.9 390.7,492.9 380.3,499.9 370.0,506.9 359.6,514.0 349.3,521.1 338.9,528.2 328.6,535.4 318.2,542.6 307.9,549.8 297.5,557.0 287.2,564.2 276.8,571.5 266.5,578.8 256.1,586.1 245.8,593.5 235.4,600.9 225.1,608.3 214.7,615.7 204.4,623.1 194.0,630.6 183.7,638.1 173.3,645.6 163.0,653.2 152.6,660.8 142.3,668.4 131.9,676.0" fill="none" stroke="#a73d2a" stroke-width="3.2" stroke-dasharray="3 5" stroke-linecap="round" stroke-linejoin="round" /><polyline points="892.5,383.9 879.8,387.6 867.1,391.4 854.4,395.1 841.8,399.0 829.1,402.8 816.4,406.7 803.7,410.7 791.1,414.6 778.4,418.6 765.7,422.7 753.0,426.8 740.4,430.9 727.7,435.1 715.0,439.3 702.3,443.6 689.7,447.9 677.0,452.2 664.3,456.6 651.6,461.0 639.0,465.5 626.3,469.9 613.6,474.5 600.9,479.1 588.2,483.7 575.6,488.3 562.9,493.0 550.2,497.7 537.5,502.5 524.9,507.3 512.2,512.2 499.5,517.1 486.8,522.0 474.2,526.9 461.5,532.0 448.8,537.0 436.1,542.1 423.5,547.2 410.8,552.4 398.1,557.6 385.4,562.8 372.8,568.1 360.1,573.4 347.4,578.8 334.7,584.2 322.1,589.6 309.4,595.1 296.7,600.6 284.0,606.2 271.3,611.8 258.7,617.4 246.0,623.1 233.3,628.8 220.6,634.6 208.0,640.4 195.3,646.2 182.6,652.1 169.9,658.0 157.3,664.0 144.6,670.0 131.9,676.0" fill="none" stroke="#c17c11" stroke-width="3.2" stroke-dasharray="8 6" stroke-linecap="round" stroke-linejoin="round" /><polyline points="892.5,383.9 879.8,387.9 867.1,391.8 854.4,395.8 841.8,399.9 829.1,404.0 816.4,408.1 803.7,412.2 791.1,416.4 778.4,420.6 765.7,424.8 753.0,429.0 740.4,433.3 727.7,437.7 715.0,442.0 702.3,446.4 689.7,450.8 677.0,455.2 664.3,459.7 651.6,464.2 639.0,468.8 626.3,473.3 613.6,478.0 600.9,482.6 588.2,487.2 575.6,491.9 562.9,496.7 550.2,501.4 537.5,506.2 524.9,511.0 512.2,515.9 499.5,520.8 486.8,525.7 474.2,530.6 461.5,535.6 448.8,540.6 436.1,545.7 423.5,550.7 410.8,555.8 398.1,561.0 385.4,566.1 372.8,571.3 360.1,576.6 347.4,581.8 334.7,587.1 322.1,592.4 309.4,597.8 296.7,603.2 284.0,608.6 271.3,614.0 258.7,619.5 246.0,625.0 233.3,630.6 220.6,636.1 208.0,641.7 195.3,647.4 182.6,653.0 169.9,658.7 157.3,664.5 144.6,670.2 131.9,676.0" fill="none" stroke="#1d70b8" stroke-width="3.2" stroke-linecap="round" stroke-linejoin="round" /><polyline points="892.5,383.9 879.8,388.1 867.1,392.3 854.4,396.5 841.8,400.7 829.1,405.0 816.4,409.2 803.7,413.5 791.1,417.9 778.4,422.2 765.7,426.6 753.0,431.0 740.4,435.4 727.7,439.9 715.0,444.4 702.3,448.9 689.7,453.4 677.0,457.9 664.3,462.5 651.6,467.1 639.0,471.7 626.3,476.3 613.6,481.0 600.9,485.7 588.2,490.4 575.6,495.1 562.9,499.9 550.2,504.7 537.5,509.5 524.9,514.3 512.2,519.2 499.5,524.1 486.8,529.0 474.2,533.9 461.5,538.9 448.8,543.8 436.1,548.8 423.5,553.9 410.8,558.9 398.1,564.0 385.4,569.1 372.8,574.2 360.1,579.3 347.4,584.5 334.7,589.7 322.1,594.9 309.4,600.1 296.7,605.4 284.0,610.7 271.3,616.0 258.7,621.3 246.0,626.7 233.3,632.1 220.6,637.5 208.0,642.9 195.3,648.4 182.6,653.8 169.9,659.4 157.3,664.9 144.6,670.4 131.9,676.0" fill="none" stroke="#a73d2a" stroke-width="3.2" stroke-dasharray="3 5" stroke-linecap="round" stroke-linejoin="round" /><polyline points="967.2,495.5 953.2,497.4 939.3,499.3 925.4,501.3 911.5,503.3 897.5,505.4 883.6,507.4 869.7,509.6 855.8,511.7 841.9,513.9 827.9,516.2 814.0,518.5 800.1,520.8 786.2,523.1 772.3,525.5 758.3,527.9 744.4,530.4 730.5,532.9 716.6,535.4 702.7,538.0 688.7,540.6 674.8,543.3 660.9,546.0 647.0,548.7 633.1,551.5 619.1,554.3 605.2,557.1 591.3,560.0 577.4,562.9 563.5,565.9 549.5,568.8 535.6,571.9 521.7,574.9 507.8,578.0 493.8,581.2 479.9,584.4 466.0,587.6 452.1,590.8 438.2,594.1 424.2,597.4 410.3,600.8 396.4,604.2 382.5,607.7 368.6,611.1 354.6,614.6 340.7,618.2 326.8,621.8 312.9,625.4 299.0,629.1 285.0,632.8 271.1,636.5 257.2,640.3 243.3,644.1 229.4,648.0 215.4,651.9 201.5,655.8 187.6,659.8 173.7,663.8 159.8,667.8 145.8,671.9 131.9,676.0" fill="none" stroke="#c17c11" stroke-width="3.2" stroke-dasharray="8 6" stroke-linecap="round" stroke-linejoin="round" /><polyline points="967.2,495.5 953.2,497.6 939.3,499.8 925.4,502.0 911.5,504.2 897.5,506.4 883.6,508.7 869.7,511.0 855.8,513.4 841.9,515.7 827.9,518.1 814.0,520.6 800.1,523.0 786.2,525.5 772.3,528.0 758.3,530.6 744.4,533.2 730.5,535.8 716.6,538.4 702.7,541.1 688.7,543.8 674.8,546.5 660.9,549.3 647.0,552.1 633.1,554.9 619.1,557.7 605.2,560.6 591.3,563.5 577.4,566.4 563.5,569.4 549.5,572.4 535.6,575.4 521.7,578.5 507.8,581.6 493.8,584.7 479.9,587.8 466.0,591.0 452.1,594.2 438.2,597.4 424.2,600.7 410.3,604.0 396.4,607.3 382.5,610.6 368.6,614.0 354.6,617.4 340.7,620.9 326.8,624.3 312.9,627.8 299.0,631.4 285.0,634.9 271.1,638.5 257.2,642.1 243.3,645.8 229.4,649.4 215.4,653.1 201.5,656.9 187.6,660.6 173.7,664.4 159.8,668.3 145.8,672.1 131.9,676.0" fill="none" stroke="#1d70b8" stroke-width="3.2" stroke-linecap="round" stroke-linejoin="round" /><polyline points="967.2,495.5 953.2,497.8 939.3,500.2 925.4,502.6 911.5,505.0 897.5,507.4 883.6,509.9 869.7,512.3 855.8,514.8 841.9,517.3 827.9,519.9 814.0,522.5 800.1,525.0 786.2,527.7 772.3,530.3 758.3,532.9 744.4,535.6 730.5,538.3 716.6,541.1 702.7,543.8 688.7,546.6 674.8,549.4 660.9,552.2 647.0,555.0 633.1,557.9 619.1,560.8 605.2,563.7 591.3,566.6 577.4,569.5 563.5,572.5 549.5,575.5 535.6,578.5 521.7,581.6 507.8,584.6 493.8,587.7 479.9,590.8 466.0,594.0 452.1,597.1 438.2,600.3 424.2,603.5 410.3,606.7 396.4,610.0 382.5,613.3 368.6,616.6 354.6,619.9 340.7,623.2 326.8,626.6 312.9,629.9 299.0,633.4 285.0,636.8 271.1,640.2 257.2,643.7 243.3,647.2 229.4,650.7 215.4,654.3 201.5,657.8 187.6,661.4 173.7,665.0 159.8,668.7 145.8,672.3 131.9,676.0" fill="none" stroke="#a73d2a" stroke-width="3.2" stroke-dasharray="3 5" stroke-linecap="round" stroke-linejoin="round" /><polyline points="1005.3,614.9 990.8,615.0 976.2,615.1 961.7,615.2 947.1,615.4 932.5,615.5 918.0,615.8 903.4,616.0 888.9,616.3 874.3,616.6 859.8,617.0 845.2,617.4 830.6,617.8 816.1,618.2 801.5,618.7 787.0,619.2 772.4,619.8 757.9,620.3 743.3,620.9 728.7,621.6 714.2,622.3 699.6,623.0 685.1,623.7 670.5,624.5 656.0,625.3 641.4,626.1 626.8,627.0 612.3,627.9 597.7,628.8 583.2,629.8 568.6,630.8 554.1,631.8 539.5,632.9 524.9,634.0 510.4,635.1 495.8,636.3 481.3,637.5 466.7,638.7 452.2,640.0 437.6,641.3 423.0,642.6 408.5,644.0 393.9,645.4 379.4,646.8 364.8,648.2 350.3,649.7 335.7,651.3 321.2,652.8 306.6,654.4 292.0,656.0 277.5,657.7 262.9,659.4 248.4,661.1 233.8,662.8 219.3,664.6 204.7,666.4 190.1,668.3 175.6,670.2 161.0,672.1 146.5,674.0 131.9,676.0" fill="none" stroke="#c17c11" stroke-width="3.2" stroke-dasharray="8 6" stroke-linecap="round" stroke-linejoin="round" /><polyline points="1005.3,614.9 990.8,615.2 976.2,615.4 961.7,615.7 947.1,616.0 932.5,616.4 918.0,616.7 903.4,617.1 888.9,617.5 874.3,618.0 859.8,618.5 845.2,619.0 830.6,619.5 816.1,620.0 801.5,620.6 787.0,621.2 772.4,621.9 757.9,622.5 743.3,623.2 728.7,623.9 714.2,624.6 699.6,625.4 685.1,626.2 670.5,627.0 656.0,627.9 641.4,628.7 626.8,629.6 612.3,630.6 597.7,631.5 583.2,632.5 568.6,633.5 554.1,634.5 539.5,635.6 524.9,636.7 510.4,637.8 495.8,638.9 481.3,640.1 466.7,641.3 452.2,642.5 437.6,643.7 423.0,645.0 408.5,646.3 393.9,647.6 379.4,649.0 364.8,650.3 350.3,651.8 335.7,653.2 321.2,654.6 306.6,656.1 292.0,657.6 277.5,659.2 262.9,660.7 248.4,662.3 233.8,663.9 219.3,665.6 204.7,667.3 190.1,668.9 175.6,670.7 161.0,672.4 146.5,674.2 131.9,676.0" fill="none" stroke="#1d70b8" stroke-width="3.2" stroke-linecap="round" stroke-linejoin="round" /><polyline points="1005.3,614.9 990.8,615.4 976.2,615.8 961.7,616.2 947.1,616.7 932.5,617.2 918.0,617.7 903.4,618.3 888.9,618.8 874.3,619.4 859.8,620.0 845.2,620.6 830.6,621.3 816.1,621.9 801.5,622.6 787.0,623.3 772.4,624.0 757.9,624.8 743.3,625.6 728.7,626.3 714.2,627.1 699.6,628.0 685.1,628.8 670.5,629.7 656.0,630.6 641.4,631.5 626.8,632.4 612.3,633.3 597.7,634.3 583.2,635.3 568.6,636.3 554.1,637.3 539.5,638.4 524.9,639.4 510.4,640.5 495.8,641.6 481.3,642.8 466.7,643.9 452.2,645.1 437.6,646.3 423.0,647.5 408.5,648.7 393.9,650.0 379.4,651.3 364.8,652.5 350.3,653.9 335.7,655.2 321.2,656.5 306.6,657.9 292.0,659.3 277.5,660.7 262.9,662.2 248.4,663.6 233.8,665.1 219.3,666.6 204.7,668.1 190.1,669.6 175.6,671.2 161.0,672.8 146.5,674.4 131.9,676.0" fill="none" stroke="#a73d2a" stroke-width="3.2" stroke-dasharray="3 5" stroke-linecap="round" stroke-linejoin="round" />
  <circle cx="131.9" cy="91.8" r="4.5" fill="#1f1a14" /><text x="139.9" y="81.8" class="arc-label">a00</text><circle cx="359.2" cy="111.7" r="4.5" fill="#1f1a14" /><text x="367.2" y="101.7" class="arc-label">a15</text><circle cx="571.0" cy="170.1" r="4.5" fill="#1f1a14" /><text x="579.0" y="160.1" class="arc-label">a30</text><circle cx="752.9" cy="262.9" r="4.5" fill="#1f1a14" /><text x="760.9" y="252.9" class="arc-label">a45</text><circle cx="892.5" cy="383.9" r="4.5" fill="#1f1a14" /><text x="900.5" y="373.9" class="arc-label">a60</text><circle cx="967.2" cy="495.5" r="4.5" fill="#1f1a14" /><text x="975.2" y="485.5" class="arc-label">a72</text><circle cx="1005.3" cy="614.9" r="4.5" fill="#1f1a14" /><text x="1013.3" y="604.9" class="arc-label">a84</text>
  <rect x="888" y="64" width="180" height="108" rx="12" fill="#fffaf1" stroke="#dcc9ab" stroke-width="1.2" /><text x="904" y="86" class="legend-title">Band Legend</text><line x1="904" y1="106" x2="940" y2="106" stroke="#c17c11" stroke-width="3.2" stroke-dasharray="8 6" stroke-linecap="round" /><text x="950" y="111" class="legend-label">low</text><line x1="904" y1="128" x2="940" y2="128" stroke="#1d70b8" stroke-width="3.2" stroke-linecap="round" /><text x="950" y="133" class="legend-label">mid</text><line x1="904" y1="150" x2="940" y2="150" stroke="#a73d2a" stroke-width="3.2" stroke-dasharray="3 5" stroke-linecap="round" /><text x="950" y="155" class="legend-label">high</text>
  <text x="88" y="734" class="note">Bands are solved from time-to-go. Low is clamped so shallow cells stay descending instead of starting upward.</text>
</svg>
