<svg xmlns="http://www.w3.org/2000/svg" width="1120" height="760" viewBox="0 0 1120 760" role="img" aria-labelledby="title desc">
  <title id="title">half_arc_terminal_v1</title>
  <desc id="desc">half_arc_terminal_v1 maintained baseline geometry at 800 meter radius with low, mid, and high time-to-go bands.</desc>
  <style>
    .title { font: 700 28px ui-sans-serif, system-ui, sans-serif; fill: #1f1a14; }
    .subtitle { font: 500 15px ui-sans-serif, system-ui, sans-serif; fill: #6d5844; }
    .axis-label { font: 12px ui-monospace, SFMono-Regular, monospace; fill: #7b6a59; }
    .legend-title { font: 700 14px ui-sans-serif, system-ui, sans-serif; fill: #2f271f; }
    .legend-label { font: 13px ui-sans-serif, system-ui, sans-serif; fill: #3d3329; }
    .arc-label { font: 600 12px ui-monospace, SFMono-Regular, monospace; fill: #2f271f; }
    .note { font: 13px ui-sans-serif, system-ui, sans-serif; fill: #5e4d3d; }
  </style>
  <rect width="1120" height="760" fill="#fbf8f1" />
  <text x="88" y="30" class="title">half_arc_terminal_v1</text>
  <text x="88" y="54" class="subtitle">One-sided terminal arrival geometry · radius = 800m · gravity = 9.81m/s² (earth baseline)</text>
  <line x1="88" y1="676.0" x2="1076" y2="676.0" stroke="#e8dfd1" stroke-width="1" /><text x="74" y="680.0" text-anchor="end" class="axis-label">0m</text><line x1="88" y1="603.0" x2="1076" y2="603.0" stroke="#e8dfd1" stroke-width="1" /><text x="74" y="607.0" text-anchor="end" class="axis-label">100m</text><line x1="88" y1="530.0" x2="1076" y2="530.0" stroke="#e8dfd1" stroke-width="1" /><text x="74" y="534.0" text-anchor="end" class="axis-label">200m</text><line x1="88" y1="456.9" x2="1076" y2="456.9" stroke="#e8dfd1" stroke-width="1" /><text x="74" y="460.9" text-anchor="end" class="axis-label">300m</text><line x1="88" y1="383.9" x2="1076" y2="383.9" stroke="#e8dfd1" stroke-width="1" /><text x="74" y="387.9" text-anchor="end" class="axis-label">400m</text><line x1="88" y1="310.9" x2="1076" y2="310.9" stroke="#e8dfd1" stroke-width="1" /><text x="74" y="314.9" text-anchor="end" class="axis-label">500m</text><line x1="88" y1="237.9" x2="1076" y2="237.9" stroke="#e8dfd1" stroke-width="1" /><text x="74" y="241.9" text-anchor="end" class="axis-label">600m</text><line x1="88" y1="164.8" x2="1076" y2="164.8" stroke="#e8dfd1" stroke-width="1" /><text x="74" y="168.8" text-anchor="end" class="axis-label">700m</text><line x1="88" y1="91.8" x2="1076" y2="91.8" stroke="#e8dfd1" stroke-width="1" /><text x="74" y="95.8" text-anchor="end" class="axis-label">800m</text><line x1="282.6" y1="48" x2="282.6" y2="676" stroke="#efe7da" stroke-width="1" /><text x="282.6" y="698" text-anchor="middle" class="axis-label">0m</text><line x1="355.6" y1="48" x2="355.6" y2="676" stroke="#efe7da" stroke-width="1" /><text x="355.6" y="698" text-anchor="middle" class="axis-label">100m</text><line x1="428.7" y1="48" x2="428.7" y2="676" stroke="#efe7da" stroke-width="1" /><text x="428.7" y="698" text-anchor="middle" class="axis-label">200m</text><line x1="501.7" y1="48" x2="501.7" y2="676" stroke="#efe7da" stroke-width="1" /><text x="501.7" y="698" text-anchor="middle" class="axis-label">300m</text><line x1="574.7" y1="48" x2="574.7" y2="676" stroke="#efe7da" stroke-width="1" /><text x="574.7" y="698" text-anchor="middle" class="axis-label">400m</text><line x1="647.7" y1="48" x2="647.7" y2="676" stroke="#efe7da" stroke-width="1" /><text x="647.7" y="698" text-anchor="middle" class="axis-label">500m</text><line x1="720.7" y1="48" x2="720.7" y2="676" stroke="#efe7da" stroke-width="1" /><text x="720.7" y="698" text-anchor="middle" class="axis-label">600m</text><line x1="793.8" y1="48" x2="793.8" y2="676" stroke="#efe7da" stroke-width="1" /><text x="793.8" y="698" text-anchor="middle" class="axis-label">700m</text><line x1="866.8" y1="48" x2="866.8" y2="676" stroke="#efe7da" stroke-width="1" /><text x="866.8" y="698" text-anchor="middle" class="axis-label">800m</text>
  <line x1="88" y1="676.0" x2="1076" y2="676.0" stroke="#5d5448" stroke-width="2.2" />
  <rect x="269.5" y="669.0" width="26.3" height="7" fill="#cab488" />
  <text x="288.6" y="664.0" class="note">target pad</text>
  <polyline points="282.6,91.8 282.6,94.1 282.6,96.7 282.6,99.5 282.6,102.6 282.6,105.9 282.6,109.4 282.6,113.3 282.6,117.3 282.6,121.6 282.6,126.2 282.6,131.0 282.6,136.1 282.6,141.4 282.6,147.0 282.6,152.9 282.6,158.9 282.6,165.3 282.6,171.9 282.6,178.7 282.6,185.8 282.6,193.1 282.6,200.7 282.6,208.6 282.6,216.7 282.6,225.0 282.6,233.6 282.6,242.5 282.6,251.6 282.6,261.0 282.6,270.6 282.6,280.4 282.6,290.6 282.6,300.9 282.6,311.5 282.6,322.4 282.6,333.5 282.6,344.9 282.6,356.5 282.6,368.4 282.6,380.5 282.6,392.9 282.6,405.5 282.6,418.4 282.6,431.6 282.6,445.0 282.6,458.6 282.6,472.5 282.6,486.6 282.6,501.0 282.6,515.7 282.6,530.6 282.6,545.7 282.6,561.1 282.6,576.8 282.6,592.7 282.6,608.8 282.6,625.3 282.6,641.9 282.6,658.8 282.6,676.0" fill="none" stroke="#c17c11" stroke-width="3.2" stroke-dasharray="8 6" stroke-linecap="round" stroke-linejoin="round" /><polyline points="282.6,91.8 282.6,96.8 282.6,101.9 282.6,107.2 282.6,112.7 282.6,118.3 282.6,124.1 282.6,130.1 282.6,136.2 282.6,142.5 282.6,148.9 282.6,155.5 282.6,162.2 282.6,169.1 282.6,176.2 282.6,183.5 282.6,190.9 282.6,198.4 282.6,206.1 282.6,214.0 282.6,222.1 282.6,230.3 282.6,238.6 282.6,247.2 282.6,255.9 282.6,264.7 282.6,273.7 282.6,282.9 282.6,292.2 282.6,301.7 282.6,311.4 282.6,321.2 282.6,331.2 282.6,341.3 282.6,351.6 282.6,362.1 282.6,372.7 282.6,383.5 282.6,394.4 282.6,405.5 282.6,416.8 282.6,428.2 282.6,439.8 282.6,451.6 282.6,463.5 282.6,475.6 282.6,487.8 282.6,500.2 282.6,512.7 282.6,525.5 282.6,538.3 282.6,551.4 282.6,564.6 282.6,577.9 282.6,591.5 282.6,605.2 282.6,619.0 282.6,633.0 282.6,647.2 282.6,661.5 282.6,676.0" fill="none" stroke="#1d70b8" stroke-width="3.2" stroke-linecap="round" stroke-linejoin="round" /><polyline points="282.6,91.8 282.6,98.9 282.6,106.0 282.6,113.3 282.6,120.6 282.6,128.0 282.6,135.5 282.6,143.2 282.6,150.8 282.6,158.6 282.6,166.5 282.6,174.5 282.6,182.5 282.6,190.7 282.6,198.9 282.6,207.3 282.6,215.7 282.6,224.2 282.6,232.8 282.6,241.5 282.6,250.3 282.6,259.2 282.6,268.1 282.6,277.2 282.6,286.3 282.6,295.6 282.6,304.9 282.6,314.3 282.6,323.8 282.6,333.4 282.6,343.1 282.6,352.9 282.6,362.8 282.6,372.7 282.6,382.8 282.6,392.9 282.6,403.2 282.6,413.5 282.6,423.9 282.6,434.4 282.6,445.0 282.6,455.7 282.6,466.5 282.6,477.3 282.6,488.3 282.6,499.4 282.6,510.5 282.6,521.7 282.6,533.1 282.6,544.5 282.6,556.0 282.6,567.6 282.6,579.3 282.6,591.0 282.6,602.9 282.6,614.9 282.6,626.9 282.6,639.0 282.6,651.3 282.6,663.6 282.6,676.0" fill="none" stroke="#a73d2a" stroke-width="3.2" stroke-dasharray="3 5" stroke-linecap="round" stroke-linejoin="round" /><polyline points="433.8,111.7 431.3,113.7 428.8,115.9 426.2,118.4 423.7,121.1 421.2,124.1 418.7,127.3 416.2,130.8 413.6,134.6 411.1,138.6 408.6,142.8 406.1,147.3 403.6,152.0 401.0,157.0 398.5,162.3 396.0,167.8 393.5,173.5 391.0,179.5 388.4,185.8 385.9,192.3 383.4,199.1 380.9,206.1 378.4,213.4 375.8,220.9 373.3,228.6 370.8,236.7 368.3,244.9 365.8,253.4 363.2,262.2 360.7,271.3 358.2,280.5 355.7,290.1 353.2,299.8 350.6,309.9 348.1,320.2 345.6,330.7 343.1,341.5 340.6,352.5 338.0,363.8 335.5,375.4 333.0,387.2 330.5,399.2 328.0,411.5 325.4,424.1 322.9,436.9 320.4,449.9 317.9,463.2 315.4,476.8 312.8,490.6 310.3,504.7 307.8,519.0 305.3,533.6 302.8,548.4 300.2,563.5 297.7,578.8 295.2,594.3 292.7,610.2 290.2,626.3 287.6,642.6 285.1,659.2 282.6,676.0" fill="none" stroke="#c17c11" stroke-width="3.2" stroke-dasharray="8 6" stroke-linecap="round" stroke-linejoin="round" /><polyline points="433.8,111.7 431.3,116.4 428.8,121.2 426.2,126.2 423.7,131.3 421.2,136.6 418.7,142.0 416.2,147.7 413.6,153.4 411.1,159.4 408.6,165.5 406.1,171.7 403.6,178.2 401.0,184.7 398.5,191.5 396.0,198.4 393.5,205.5 391.0,212.7 388.4,220.1 385.9,227.6 383.4,235.3 380.9,243.2 378.4,251.2 375.8,259.4 373.3,267.8 370.8,276.3 368.3,285.0 365.8,293.8 363.2,302.8 360.7,312.0 358.2,321.3 355.7,330.8 353.2,340.5 350.6,350.3 348.1,360.2 345.6,370.4 343.1,380.7 340.6,391.1 338.0,401.7 335.5,412.5 333.0,423.4 330.5,434.5 328.0,445.8 325.4,457.2 322.9,468.8 320.4,480.5 317.9,492.4 315.4,504.5 312.8,516.7 310.3,529.1 307.8,541.7 305.3,554.4 302.8,567.2 300.2,580.3 297.7,593.5 295.2,606.8 292.7,620.3 290.2,634.0 287.6,647.8 285.1,661.8 282.6,676.0" fill="none" stroke="#1d70b8" stroke-width="3.2" stroke-linecap="round" stroke-linejoin="round" /><polyline points="433.8,111.7 431.3,118.4 428.8,125.3 426.2,132.2 423.7,139.2 421.2,146.3 418.7,153.5 416.2,160.7 413.6,168.1 411.1,175.6 408.6,183.1 406.1,190.7 403.6,198.5 401.0,206.3 398.5,214.2 396.0,222.2 393.5,230.3 391.0,238.5 388.4,246.7 385.9,255.1 383.4,263.5 380.9,272.1 378.4,280.7 375.8,289.4 373.3,298.3 370.8,307.2 368.3,316.2 365.8,325.3 363.2,334.4 360.7,343.7 358.2,353.1 355.7,362.5 353.2,372.1 350.6,381.7 348.1,391.4 345.6,401.2 343.1,411.1 340.6,421.1 338.0,431.2 335.5,441.4 333.0,451.6 330.5,462.0 328.0,472.4 325.4,483.0 322.9,493.6 320.4,504.3 317.9,515.1 315.4,526.0 312.8,537.0 310.3,548.1 307.8,559.3 305.3,570.6 302.8,581.9 300.2,593.3 297.7,604.9 295.2,616.5 292.7,628.2 290.2,640.0 287.6,651.9 285.1,663.9 282.6,676.0" fill="none" stroke="#a73d2a" stroke-width="3.2" stroke-dasharray="3 5" stroke-linecap="round" stroke-linejoin="round" /><polyline points="574.7,170.1 569.8,171.5 565.0,173.1 560.1,175.0 555.2,177.1 550.4,179.5 545.5,182.1 540.6,184.9 535.8,188.0 530.9,191.3 526.0,194.9 521.1,198.7 516.3,202.7 511.4,207.0 506.5,211.5 501.7,216.2 496.8,221.2 491.9,226.4 487.1,231.9 482.2,237.6 477.3,243.5 472.5,249.7 467.6,256.1 462.7,262.7 457.9,269.6 453.0,276.7 448.1,284.1 443.3,291.7 438.4,299.5 433.5,307.6 428.7,315.9 423.8,324.5 418.9,333.3 414.0,342.3 409.2,351.6 404.3,361.1 399.4,370.8 394.6,380.8 389.7,391.0 384.8,401.4 380.0,412.1 375.1,423.1 370.2,434.2 365.4,445.6 360.5,457.3 355.6,469.2 350.8,481.3 345.9,493.7 341.0,506.3 336.2,519.1 331.3,532.2 326.4,545.5 321.6,559.0 316.7,572.8 311.8,586.8 306.9,601.1 302.1,615.6 297.2,630.4 292.3,645.3 287.5,660.5 282.6,676.0" fill="none" stroke="#c17c11" stroke-width="3.2" stroke-dasharray="8 6" stroke-linecap="round" stroke-linejoin="round" /><polyline points="574.7,170.1 569.8,174.0 565.0,178.1 560.1,182.4 555.2,186.7 550.4,191.3 545.5,196.0 540.6,200.8 535.8,205.8 530.9,211.0 526.0,216.3 521.1,221.8 516.3,227.4 511.4,233.2 506.5,239.1 501.7,245.1 496.8,251.4 491.9,257.7 487.1,264.3 482.2,270.9 477.3,277.8 472.5,284.8 467.6,291.9 462.7,299.2 457.9,306.6 453.0,314.2 448.1,322.0 443.3,329.9 438.4,337.9 433.5,346.1 428.7,354.5 423.8,363.0 418.9,371.7 414.0,380.5 409.2,389.4 404.3,398.5 399.4,407.8 394.6,417.2 389.7,426.8 384.8,436.5 380.0,446.4 375.1,456.5 370.2,466.6 365.4,477.0 360.5,487.5 355.6,498.1 350.8,508.9 345.9,519.8 341.0,530.9 336.2,542.2 331.3,553.6 326.4,565.1 321.6,576.9 316.7,588.7 311.8,600.7 306.9,612.9 302.1,625.2 297.2,637.7 292.3,650.3 287.5,663.1 282.6,676.0" fill="none" stroke="#1d70b8" stroke-width="3.2" stroke-linecap="round" stroke-linejoin="round" /><polyline points="574.7,170.1 569.8,176.0 565.0,182.0 560.1,188.0 555.2,194.2 550.4,200.5 545.5,206.8 540.6,213.2 535.8,219.7 530.9,226.3 526.0,233.0 521.1,239.7 516.3,246.6 511.4,253.5 506.5,260.5 501.7,267.6 496.8,274.8 491.9,282.1 487.1,289.5 482.2,296.9 477.3,304.4 472.5,312.1 467.6,319.8 462.7,327.6 457.9,335.4 453.0,343.4 448.1,351.4 443.3,359.6 438.4,367.8 433.5,376.1 428.7,384.5 423.8,393.0 418.9,401.5 414.0,410.2 409.2,418.9 404.3,427.7 399.4,436.6 394.6,445.6 389.7,454.7 384.8,463.8 380.0,473.1 375.1,482.4 370.2,491.8 365.4,501.3 360.5,510.9 355.6,520.6 350.8,530.4 345.9,540.2 341.0,550.1 336.2,560.2 331.3,570.3 326.4,580.4 321.6,590.7 316.7,601.1 311.8,611.5 306.9,622.1 302.1,632.7 297.2,643.4 292.3,654.2 287.5,665.0 282.6,676.0" fill="none" stroke="#a73d2a" stroke-width="3.2" stroke-dasharray="3 5" stroke-linecap="round" stroke-linejoin="round" /><polyline points="695.7,262.9 688.8,263.2 681.9,263.7 675.0,264.4 668.1,265.3 661.3,266.5 654.4,267.8 647.5,269.4 640.6,271.3 633.7,273.3 626.8,275.6 620.0,278.1 613.1,280.8 606.2,283.8 599.3,287.0 592.4,290.4 585.5,294.0 578.6,297.9 571.8,301.9 564.9,306.2 558.0,310.8 551.1,315.5 544.2,320.5 537.3,325.7 530.5,331.1 523.6,336.8 516.7,342.6 509.8,348.7 502.9,355.1 496.0,361.6 489.1,368.4 482.3,375.4 475.4,382.6 468.5,390.0 461.6,397.7 454.7,405.6 447.8,413.7 441.0,422.1 434.1,430.6 427.2,439.4 420.3,448.5 413.4,457.7 406.5,467.2 399.6,476.9 392.8,486.8 385.9,496.9 379.0,507.3 372.1,517.9 365.2,528.7 358.3,539.7 351.5,551.0 344.6,562.5 337.7,574.2 330.8,586.1 323.9,598.3 317.0,610.7 310.1,623.3 303.3,636.1 296.4,649.2 289.5,662.5 282.6,676.0" fill="none" stroke="#c17c11" stroke-width="3.2" stroke-dasharray="8 6" stroke-linecap="round" stroke-linejoin="round" /><polyline points="695.7,262.9 688.8,265.6 681.9,268.3 675.0,271.3 668.1,274.4 661.3,277.6 654.4,280.9 647.5,284.4 640.6,288.1 633.7,291.9 626.8,295.8 620.0,299.9 613.1,304.1 606.2,308.5 599.3,313.0 592.4,317.7 585.5,322.5 578.6,327.4 571.8,332.5 564.9,337.7 558.0,343.1 551.1,348.6 544.2,354.3 537.3,360.1 530.5,366.0 523.6,372.1 516.7,378.4 509.8,384.8 502.9,391.3 496.0,398.0 489.1,404.8 482.3,411.7 475.4,418.8 468.5,426.1 461.6,433.5 454.7,441.0 447.8,448.7 441.0,456.5 434.1,464.4 427.2,472.5 420.3,480.8 413.4,489.2 406.5,497.7 399.6,506.4 392.8,515.2 385.9,524.2 379.0,533.3 372.1,542.6 365.2,552.0 358.3,561.5 351.5,571.2 344.6,581.0 337.7,591.0 330.8,601.1 323.9,611.4 317.0,621.8 310.1,632.4 303.3,643.1 296.4,653.9 289.5,664.9 282.6,676.0" fill="none" stroke="#1d70b8" stroke-width="3.2" stroke-linecap="round" stroke-linejoin="round" /><polyline points="695.7,262.9 688.8,267.4 681.9,272.0 675.0,276.7 668.1,281.4 661.3,286.2 654.4,291.1 647.5,296.1 640.6,301.2 633.7,306.3 626.8,311.5 620.0,316.9 613.1,322.2 606.2,327.7 599.3,333.3 592.4,338.9 585.5,344.6 578.6,350.4 571.8,356.3 564.9,362.2 558.0,368.3 551.1,374.4 544.2,380.6 537.3,386.9 530.5,393.2 523.6,399.7 516.7,406.2 509.8,412.8 502.9,419.5 496.0,426.2 489.1,433.1 482.3,440.0 475.4,447.0 468.5,454.1 461.6,461.3 454.7,468.5 447.8,475.8 441.0,483.2 434.1,490.7 427.2,498.3 420.3,506.0 413.4,513.7 406.5,521.5 399.6,529.4 392.8,537.4 385.9,545.4 379.0,553.6 372.1,561.8 365.2,570.1 358.3,578.5 351.5,586.9 344.6,595.5 337.7,604.1 330.8,612.8 323.9,621.6 317.0,630.5 310.1,639.4 303.3,648.4 296.4,657.5 289.5,666.7 282.6,676.0" fill="none" stroke="#a73d2a" stroke-width="3.2" stroke-dasharray="3 5" stroke-linecap="round" stroke-linejoin="round" /><polyline points="788.5,383.9 780.1,382.5 771.7,381.4 763.2,380.4 754.8,379.7 746.4,379.2 737.9,378.8 729.5,378.7 721.1,378.8 712.6,379.2 704.2,379.7 695.8,380.4 687.3,381.4 678.9,382.5 670.5,383.9 662.0,385.5 653.6,387.3 645.2,389.3 636.7,391.5 628.3,394.0 619.9,396.6 611.5,399.5 603.0,402.6 594.6,405.8 586.2,409.3 577.7,413.0 569.3,416.9 560.9,421.1 552.4,425.4 544.0,430.0 535.6,434.7 527.1,439.7 518.7,444.9 510.3,450.3 501.8,455.9 493.4,461.7 485.0,467.7 476.5,474.0 468.1,480.4 459.7,487.1 451.2,494.0 442.8,501.1 434.4,508.4 425.9,515.9 417.5,523.6 409.1,531.6 400.7,539.7 392.2,548.1 383.8,556.6 375.4,565.4 366.9,574.4 358.5,583.6 350.1,593.0 341.6,602.7 333.2,612.5 324.8,622.6 316.3,632.8 307.9,643.3 299.5,654.0 291.0,664.9 282.6,676.0" fill="none" stroke="#c17c11" stroke-width="3.2" stroke-dasharray="8 6" stroke-linecap="round" stroke-linejoin="round" /><polyline points="788.5,383.9 780.1,384.8 771.7,385.8 763.2,386.9 754.8,388.2 746.4,389.6 737.9,391.2 729.5,392.9 721.1,394.7 712.6,396.6 704.2,398.7 695.8,401.0 687.3,403.3 678.9,405.8 670.5,408.5 662.0,411.2 653.6,414.1 645.2,417.2 636.7,420.3 628.3,423.7 619.9,427.1 611.5,430.7 603.0,434.4 594.6,438.2 586.2,442.2 577.7,446.4 569.3,450.6 560.9,455.0 552.4,459.5 544.0,464.2 535.6,469.0 527.1,473.9 518.7,479.0 510.3,484.2 501.8,489.6 493.4,495.0 485.0,500.7 476.5,506.4 468.1,512.3 459.7,518.3 451.2,524.5 442.8,530.8 434.4,537.2 425.9,543.7 417.5,550.4 409.1,557.3 400.7,564.2 392.2,571.3 383.8,578.6 375.4,585.9 366.9,593.5 358.5,601.1 350.1,608.9 341.6,616.8 333.2,624.8 324.8,633.0 316.3,641.4 307.9,649.8 299.5,658.4 291.0,667.1 282.6,676.0" fill="none" stroke="#1d70b8" stroke-width="3.2" stroke-linecap="round" stroke-linejoin="round" /><polyline points="788.5,383.9 780.1,386.5 771.7,389.2 763.2,392.0 754.8,394.8 746.4,397.8 737.9,400.8 729.5,403.9 721.1,407.0 712.6,410.2 704.2,413.5 695.8,416.9 687.3,420.4 678.9,423.9 670.5,427.5 662.0,431.2 653.6,435.0 645.2,438.8 636.7,442.7 628.3,446.7 619.9,450.8 611.5,454.9 603.0,459.2 594.6,463.5 586.2,467.8 577.7,472.3 569.3,476.8 560.9,481.4 552.4,486.1 544.0,490.8 535.6,495.7 527.1,500.6 518.7,505.6 510.3,510.6 501.8,515.8 493.4,521.0 485.0,526.3 476.5,531.6 468.1,537.1 459.7,542.6 451.2,548.2 442.8,553.8 434.4,559.6 425.9,565.4 417.5,571.3 409.1,577.3 400.7,583.3 392.2,589.4 383.8,595.6 375.4,601.9 366.9,608.3 358.5,614.7 350.1,621.2 341.6,627.8 333.2,634.4 324.8,641.2 316.3,648.0 307.9,654.9 299.5,661.8 291.0,668.9 282.6,676.0" fill="none" stroke="#a73d2a" stroke-width="3.2" stroke-dasharray="3 5" stroke-linecap="round" stroke-linejoin="round" /><polyline points="831.6,476.2 822.4,473.7 813.3,471.3 804.1,469.2 795.0,467.2 785.8,465.5 776.7,463.9 767.5,462.6 758.4,461.4 749.2,460.5 740.1,459.8 730.9,459.2 721.8,458.8 712.6,458.7 703.5,458.7 694.3,459.0 685.2,459.4 676.0,460.1 666.9,460.9 657.7,462.0 648.6,463.2 639.4,464.6 630.3,466.3 621.1,468.1 612.0,470.2 602.8,472.4 593.7,474.8 584.5,477.5 575.4,480.3 566.2,483.3 557.1,486.6 547.9,490.0 538.8,493.6 529.6,497.4 520.5,501.5 511.3,505.7 502.2,510.1 493.0,514.7 483.9,519.6 474.7,524.6 465.6,529.8 456.4,535.2 447.3,540.8 438.1,546.7 429.0,552.7 419.8,558.9 410.7,565.3 401.5,571.9 392.4,578.7 383.2,585.7 374.1,593.0 364.9,600.4 355.8,608.0 346.6,615.8 337.5,623.8 328.4,632.0 319.2,640.4 310.1,649.0 300.9,657.8 291.8,666.8 282.6,676.0" fill="none" stroke="#c17c11" stroke-width="3.2" stroke-dasharray="8 6" stroke-linecap="round" stroke-linejoin="round" /><polyline points="831.6,476.2 822.4,475.8 813.3,475.5 804.1,475.3 795.0,475.3 785.8,475.3 776.7,475.5 767.5,475.9 758.4,476.3 749.2,476.9 740.1,477.7 730.9,478.5 721.8,479.5 712.6,480.6 703.5,481.8 694.3,483.2 685.2,484.6 676.0,486.3 666.9,488.0 657.7,489.9 648.6,491.9 639.4,494.0 630.3,496.2 621.1,498.6 612.0,501.1 602.8,503.7 593.7,506.5 584.5,509.4 575.4,512.4 566.2,515.5 557.1,518.8 547.9,522.2 538.8,525.7 529.6,529.4 520.5,533.1 511.3,537.0 502.2,541.1 493.0,545.2 483.9,549.5 474.7,553.9 465.6,558.5 456.4,563.1 447.3,567.9 438.1,572.8 429.0,577.9 419.8,583.1 410.7,588.4 401.5,593.8 392.4,599.4 383.2,605.0 374.1,610.9 364.9,616.8 355.8,622.9 346.6,629.1 337.5,635.4 328.4,641.8 319.2,648.4 310.1,655.1 300.9,662.0 291.8,668.9 282.6,676.0" fill="none" stroke="#1d70b8" stroke-width="3.2" stroke-linecap="round" stroke-linejoin="round" /><polyline points="831.6,476.2 822.4,477.4 813.3,478.7 804.1,480.1 795.0,481.5 785.8,483.0 776.7,484.6 767.5,486.2 758.4,487.9 749.2,489.7 740.1,491.6 730.9,493.5 721.8,495.5 712.6,497.6 703.5,499.8 694.3,502.0 685.2,504.3 676.0,506.6 666.9,509.1 657.7,511.6 648.6,514.1 639.4,516.8 630.3,519.5 621.1,522.3 612.0,525.2 602.8,528.1 593.7,531.1 584.5,534.2 575.4,537.3 566.2,540.6 557.1,543.9 547.9,547.2 538.8,550.7 529.6,554.2 520.5,557.8 511.3,561.4 502.2,565.1 493.0,568.9 483.9,572.8 474.7,576.7 465.6,580.7 456.4,584.8 447.3,589.0 438.1,593.2 429.0,597.5 419.8,601.9 410.7,606.3 401.5,610.8 392.4,615.4 383.2,620.1 374.1,624.8 364.9,629.6 355.8,634.5 346.6,639.4 337.5,644.4 328.4,649.5 319.2,654.7 310.1,659.9 300.9,665.2 291.8,670.6 282.6,676.0" fill="none" stroke="#a73d2a" stroke-width="3.2" stroke-dasharray="3 5" stroke-linecap="round" stroke-linejoin="round" /><polyline points="857.9,574.6 848.3,570.4 838.7,566.4 829.2,562.6 819.6,559.0 810.0,555.6 800.4,552.5 790.8,549.5 781.2,546.7 771.6,544.1 762.0,541.7 752.4,539.5 742.9,537.5 733.3,535.7 723.7,534.2 714.1,532.8 704.5,531.6 694.9,530.6 685.3,529.8 675.7,529.2 666.1,528.8 656.6,528.6 647.0,528.6 637.4,528.8 627.8,529.2 618.2,529.8 608.6,530.6 599.0,531.6 589.4,532.8 579.8,534.1 570.3,535.7 560.7,537.5 551.1,539.5 541.5,541.7 531.9,544.1 522.3,546.7 512.7,549.5 503.1,552.4 493.6,555.6 484.0,559.0 474.4,562.6 464.8,566.4 455.2,570.3 445.6,574.5 436.0,578.9 426.4,583.5 416.8,588.3 407.3,593.2 397.7,598.4 388.1,603.8 378.5,609.3 368.9,615.1 359.3,621.1 349.7,627.3 340.1,633.6 330.5,640.2 321.0,647.0 311.4,653.9 301.8,661.1 292.2,668.4 282.6,676.0" fill="none" stroke="#c17c11" stroke-width="3.2" stroke-dasharray="8 6" stroke-linecap="round" stroke-linejoin="round" /><polyline points="857.9,574.6 848.3,572.5 838.7,570.6 829.2,568.7 819.6,567.1 810.0,565.5 800.4,564.1 790.8,562.8 781.2,561.6 771.6,560.5 762.0,559.6 752.4,558.8 742.9,558.2 733.3,557.6 723.7,557.2 714.1,556.9 704.5,556.8 694.9,556.8 685.3,556.9 675.7,557.1 666.1,557.4 656.6,557.9 647.0,558.5 637.4,559.3 627.8,560.1 618.2,561.1 608.6,562.2 599.0,563.5 589.4,564.8 579.8,566.3 570.3,568.0 560.7,569.7 551.1,571.6 541.5,573.6 531.9,575.8 522.3,578.0 512.7,580.4 503.1,582.9 493.6,585.6 484.0,588.3 474.4,591.2 464.8,594.3 455.2,597.4 445.6,600.7 436.0,604.1 426.4,607.7 416.8,611.3 407.3,615.1 397.7,619.0 388.1,623.1 378.5,627.3 368.9,631.6 359.3,636.0 349.7,640.5 340.1,645.2 330.5,650.0 321.0,655.0 311.4,660.0 301.8,665.2 292.2,670.6 282.6,676.0" fill="none" stroke="#1d70b8" stroke-width="3.2" stroke-linecap="round" stroke-linejoin="round" /><polyline points="857.9,574.6 848.3,574.1 838.7,573.8 829.2,573.5 819.6,573.3 810.0,573.2 800.4,573.1 790.8,573.1 781.2,573.2 771.6,573.3 762.0,573.6 752.4,573.8 742.9,574.2 733.3,574.7 723.7,575.2 714.1,575.7 704.5,576.4 694.9,577.1 685.3,577.9 675.7,578.8 666.1,579.7 656.6,580.7 647.0,581.8 637.4,583.0 627.8,584.2 618.2,585.5 608.6,586.9 599.0,588.3 589.4,589.8 579.8,591.4 570.3,593.0 560.7,594.8 551.1,596.6 541.5,598.4 531.9,600.4 522.3,602.4 512.7,604.5 503.1,606.6 493.6,608.9 484.0,611.2 474.4,613.5 464.8,616.0 455.2,618.5 445.6,621.1 436.0,623.7 426.4,626.5 416.8,629.3 407.3,632.1 397.7,635.1 388.1,638.1 378.5,641.2 368.9,644.3 359.3,647.6 349.7,650.9 340.1,654.3 330.5,657.7 321.0,661.2 311.4,664.8 301.8,668.5 292.2,672.2 282.6,676.0" fill="none" stroke="#a73d2a" stroke-width="3.2" stroke-dasharray="3 5" stroke-linecap="round" stroke-linejoin="round" />
  <circle cx="282.6" cy="91.8" r="4.5" fill="#1f1a14" /><text x="290.6" y="81.8" class="arc-label">a00</text><circle cx="433.8" cy="111.7" r="4.5" fill="#1f1a14" /><text x="441.8" y="101.7" class="arc-label">a15</text><circle cx="574.7" cy="170.1" r="4.5" fill="#1f1a14" /><text x="582.7" y="160.1" class="arc-label">a30</text><circle cx="695.7" cy="262.9" r="4.5" fill="#1f1a14" /><text x="703.7" y="252.9" class="arc-label">a45</text><circle cx="788.5" cy="383.9" r="4.5" fill="#1f1a14" /><text x="796.5" y="373.9" class="arc-label">a60</text><circle cx="831.6" cy="476.2" r="4.5" fill="#1f1a14" /><text x="839.6" y="466.2" class="arc-label">a70</text><circle cx="857.9" cy="574.6" r="4.5" fill="#1f1a14" /><text x="865.9" y="564.6" class="arc-label">a80</text>
  <rect x="888" y="64" width="180" height="108" rx="12" fill="#fffaf1" stroke="#dcc9ab" stroke-width="1.2" /><text x="904" y="86" class="legend-title">Band Legend</text><line x1="904" y1="106" x2="940" y2="106" stroke="#c17c11" stroke-width="3.2" stroke-dasharray="8 6" stroke-linecap="round" /><text x="950" y="111" class="legend-label">low</text><line x1="904" y1="128" x2="940" y2="128" stroke="#1d70b8" stroke-width="3.2" stroke-linecap="round" /><text x="950" y="133" class="legend-label">mid</text><line x1="904" y1="150" x2="940" y2="150" stroke="#a73d2a" stroke-width="3.2" stroke-dasharray="3 5" stroke-linecap="round" /><text x="950" y="155" class="legend-label">high</text>
  <text x="88" y="734" class="note">Bands are solved from time-to-go. Low may start upward at shallow cells when the tuned practical flight time calls for it.</text>
</svg>
