<svg xmlns="http://www.w3.org/2000/svg" width="1120" height="760" viewBox="0 0 1120 760" role="img" aria-labelledby="title desc">
  <title id="title">half_arc_terminal_v1</title>
  <desc id="desc">half_arc_terminal_v1 maintained baseline geometry at 800 meter radius with low, mid, and high time-to-go bands.</desc>
  <style>
    .title { font: 700 28px ui-sans-serif, system-ui, sans-serif; fill: #1f1a14; }
    .subtitle { font: 500 15px ui-sans-serif, system-ui, sans-serif; fill: #6d5844; }
    .axis-label { font: 12px ui-monospace, SFMono-Regular, monospace; fill: #7b6a59; }
    .legend-title { font: 700 14px ui-sans-serif, system-ui, sans-serif; fill: #2f271f; }
    .legend-label { font: 13px ui-sans-serif, system-ui, sans-serif; fill: #3d3329; }
    .arc-label { font: 600 12px ui-monospace, SFMono-Regular, monospace; fill: #2f271f; }
    .note { font: 13px ui-sans-serif, system-ui, sans-serif; fill: #5e4d3d; }
  </style>
  <rect width="1120" height="760" fill="#fbf8f1" />
  <text x="88" y="30" class="title">half_arc_terminal_v1</text>
  <text x="88" y="54" class="subtitle">One-sided terminal arrival geometry · radius = 800m · gravity = 9.81m/s² (earth baseline)</text>
  <line x1="88" y1="676.0" x2="1076" y2="676.0" stroke="#e8dfd1" stroke-width="1" /><text x="74" y="680.0" text-anchor="end" class="axis-label">0m</text><line x1="88" y1="603.0" x2="1076" y2="603.0" stroke="#e8dfd1" stroke-width="1" /><text x="74" y="607.0" text-anchor="end" class="axis-label">100m</text><line x1="88" y1="530.0" x2="1076" y2="530.0" stroke="#e8dfd1" stroke-width="1" /><text x="74" y="534.0" text-anchor="end" class="axis-label">200m</text><line x1="88" y1="456.9" x2="1076" y2="456.9" stroke="#e8dfd1" stroke-width="1" /><text x="74" y="460.9" text-anchor="end" class="axis-label">300m</text><line x1="88" y1="383.9" x2="1076" y2="383.9" stroke="#e8dfd1" stroke-width="1" /><text x="74" y="387.9" text-anchor="end" class="axis-label">400m</text><line x1="88" y1="310.9" x2="1076" y2="310.9" stroke="#e8dfd1" stroke-width="1" /><text x="74" y="314.9" text-anchor="end" class="axis-label">500m</text><line x1="88" y1="237.9" x2="1076" y2="237.9" stroke="#e8dfd1" stroke-width="1" /><text x="74" y="241.9" text-anchor="end" class="axis-label">600m</text><line x1="88" y1="164.8" x2="1076" y2="164.8" stroke="#e8dfd1" stroke-width="1" /><text x="74" y="168.8" text-anchor="end" class="axis-label">700m</text><line x1="88" y1="91.8" x2="1076" y2="91.8" stroke="#e8dfd1" stroke-width="1" /><text x="74" y="95.8" text-anchor="end" class="axis-label">800m</text><line x1="282.6" y1="48" x2="282.6" y2="676" stroke="#efe7da" stroke-width="1" /><text x="282.6" y="698" text-anchor="middle" class="axis-label">0m</text><line x1="355.6" y1="48" x2="355.6" y2="676" stroke="#efe7da" stroke-width="1" /><text x="355.6" y="698" text-anchor="middle" class="axis-label">100m</text><line x1="428.7" y1="48" x2="428.7" y2="676" stroke="#efe7da" stroke-width="1" /><text x="428.7" y="698" text-anchor="middle" class="axis-label">200m</text><line x1="501.7" y1="48" x2="501.7" y2="676" stroke="#efe7da" stroke-width="1" /><text x="501.7" y="698" text-anchor="middle" class="axis-label">300m</text><line x1="574.7" y1="48" x2="574.7" y2="676" stroke="#efe7da" stroke-width="1" /><text x="574.7" y="698" text-anchor="middle" class="axis-label">400m</text><line x1="647.7" y1="48" x2="647.7" y2="676" stroke="#efe7da" stroke-width="1" /><text x="647.7" y="698" text-anchor="middle" class="axis-label">500m</text><line x1="720.7" y1="48" x2="720.7" y2="676" stroke="#efe7da" stroke-width="1" /><text x="720.7" y="698" text-anchor="middle" class="axis-label">600m</text><line x1="793.8" y1="48" x2="793.8" y2="676" stroke="#efe7da" stroke-width="1" /><text x="793.8" y="698" text-anchor="middle" class="axis-label">700m</text><line x1="866.8" y1="48" x2="866.8" y2="676" stroke="#efe7da" stroke-width="1" /><text x="866.8" y="698" text-anchor="middle" class="axis-label">800m</text>
  <line x1="88" y1="676.0" x2="1076" y2="676.0" stroke="#5d5448" stroke-width="2.2" />
  <rect x="269.5" y="669.0" width="26.3" height="7" fill="#cab488" />
  <text x="288.6" y="664.0" class="note">target pad</text>
  <polyline points="282.6,91.8 282.6,94.9 282.6,98.3 282.6,101.8 282.6,105.6 282.6,109.6 282.6,113.8 282.6,118.3 282.6,123.0 282.6,127.9 282.6,133.0 282.6,138.4 282.6,144.0 282.6,149.8 282.6,155.8 282.6,162.0 282.6,168.5 282.6,175.2 282.6,182.2 282.6,189.3 282.6,196.7 282.6,204.3 282.6,212.1 282.6,220.2 282.6,228.4 282.6,236.9 282.6,245.7 282.6,254.6 282.6,263.8 282.6,273.2 282.6,282.8 282.6,292.7 282.6,302.7 282.6,313.0 282.6,323.6 282.6,334.3 282.6,345.3 282.6,356.5 282.6,367.9 282.6,379.5 282.6,391.4 282.6,403.5 282.6,415.8 282.6,428.4 282.6,441.1 282.6,454.1 282.6,467.4 282.6,480.8 282.6,494.5 282.6,508.4 282.6,522.5 282.6,536.8 282.6,551.4 282.6,566.2 282.6,581.2 282.6,596.4 282.6,611.9 282.6,627.6 282.6,643.5 282.6,659.6 282.6,676.0" fill="none" stroke="#c17c11" stroke-width="3.2" stroke-dasharray="8 6" stroke-linecap="round" stroke-linejoin="round" /><polyline points="282.6,91.8 282.6,97.3 282.6,102.9 282.6,108.7 282.6,114.7 282.6,120.7 282.6,126.9 282.6,133.3 282.6,139.8 282.6,146.4 282.6,153.2 282.6,160.2 282.6,167.2 282.6,174.5 282.6,181.8 282.6,189.3 282.6,197.0 282.6,204.8 282.6,212.7 282.6,220.8 282.6,229.0 282.6,237.4 282.6,245.9 282.6,254.6 282.6,263.4 282.6,272.3 282.6,281.4 282.6,290.6 282.6,300.0 282.6,309.5 282.6,319.2 282.6,329.0 282.6,339.0 282.6,349.1 282.6,359.3 282.6,369.7 282.6,380.2 282.6,390.9 282.6,401.7 282.6,412.7 282.6,423.8 282.6,435.0 282.6,446.4 282.6,457.9 282.6,469.6 282.6,481.4 282.6,493.4 282.6,505.5 282.6,517.8 282.6,530.2 282.6,542.7 282.6,555.4 282.6,568.2 282.6,581.2 282.6,594.3 282.6,607.5 282.6,621.0 282.6,634.5 282.6,648.2 282.6,662.0 282.6,676.0" fill="none" stroke="#1d70b8" stroke-width="3.2" stroke-linecap="round" stroke-linejoin="round" /><polyline points="282.6,91.8 282.6,99.2 282.6,106.6 282.6,114.1 282.6,121.7 282.6,129.4 282.6,137.1 282.6,145.0 282.6,152.9 282.6,160.9 282.6,169.0 282.6,177.1 282.6,185.4 282.6,193.7 282.6,202.1 282.6,210.6 282.6,219.1 282.6,227.8 282.6,236.5 282.6,245.3 282.6,254.2 282.6,263.2 282.6,272.2 282.6,281.3 282.6,290.6 282.6,299.8 282.6,309.2 282.6,318.7 282.6,328.2 282.6,337.8 282.6,347.5 282.6,357.3 282.6,367.2 282.6,377.1 282.6,387.1 282.6,397.2 282.6,407.4 282.6,417.7 282.6,428.0 282.6,438.4 282.6,448.9 282.6,459.5 282.6,470.2 282.6,480.9 282.6,491.8 282.6,502.7 282.6,513.6 282.6,524.7 282.6,535.9 282.6,547.1 282.6,558.4 282.6,569.8 282.6,581.3 282.6,592.8 282.6,604.5 282.6,616.2 282.6,628.0 282.6,639.9 282.6,651.8 282.6,663.9 282.6,676.0" fill="none" stroke="#a73d2a" stroke-width="3.2" stroke-dasharray="3 5" stroke-linecap="round" stroke-linejoin="round" /><polyline points="433.8,111.7 431.3,114.5 428.8,117.5 426.2,120.7 423.7,124.2 421.2,127.9 418.7,131.8 416.2,135.9 413.6,140.2 411.1,144.8 408.6,149.6 406.1,154.6 403.6,159.9 401.0,165.4 398.5,171.1 396.0,177.0 393.5,183.1 391.0,189.5 388.4,196.1 385.9,202.9 383.4,210.0 380.9,217.2 378.4,224.7 375.8,232.4 373.3,240.4 370.8,248.6 368.3,257.0 365.8,265.6 363.2,274.4 360.7,283.5 358.2,292.8 355.7,302.3 353.2,312.0 350.6,322.0 348.1,332.2 345.6,342.6 343.1,353.2 340.6,364.1 338.0,375.2 335.5,386.5 333.0,398.1 330.5,409.8 328.0,421.8 325.4,434.0 322.9,446.5 320.4,459.1 317.9,472.0 315.4,485.1 312.8,498.4 310.3,512.0 307.8,525.8 305.3,539.8 302.8,554.0 300.2,568.5 297.7,583.2 295.2,598.1 292.7,613.2 290.2,628.6 287.6,644.2 285.1,660.0 282.6,676.0" fill="none" stroke="#c17c11" stroke-width="3.2" stroke-dasharray="8 6" stroke-linecap="round" stroke-linejoin="round" /><polyline points="433.8,111.7 431.3,116.9 428.8,122.2 426.2,127.6 423.7,133.2 421.2,139.0 418.7,144.9 416.2,150.9 413.6,157.1 411.1,163.4 408.6,169.8 406.1,176.4 403.6,183.2 401.0,190.1 398.5,197.1 396.0,204.3 393.5,211.6 391.0,219.1 388.4,226.7 385.9,234.4 383.4,242.3 380.9,250.3 378.4,258.5 375.8,266.9 373.3,275.3 370.8,283.9 368.3,292.7 365.8,301.6 363.2,310.6 360.7,319.8 358.2,329.2 355.7,338.6 353.2,348.3 350.6,358.0 348.1,367.9 345.6,378.0 343.1,388.2 340.6,398.5 338.0,409.0 335.5,419.6 333.0,430.4 330.5,441.3 328.0,452.4 325.4,463.6 322.9,474.9 320.4,486.4 317.9,498.0 315.4,509.8 312.8,521.7 310.3,533.8 307.8,546.0 305.3,558.4 302.8,570.9 300.2,583.5 297.7,596.3 295.2,609.2 292.7,622.3 290.2,635.5 287.6,648.9 285.1,662.4 282.6,676.0" fill="none" stroke="#1d70b8" stroke-width="3.2" stroke-linecap="round" stroke-linejoin="round" /><polyline points="433.8,111.7 431.3,118.7 428.8,125.8 426.2,133.0 423.7,140.3 421.2,147.6 418.7,155.0 416.2,162.6 413.6,170.1 411.1,177.8 408.6,185.5 406.1,193.4 403.6,201.3 401.0,209.3 398.5,217.3 396.0,225.5 393.5,233.7 391.0,242.0 388.4,250.4 385.9,258.9 383.4,267.5 380.9,276.1 378.4,284.8 375.8,293.6 373.3,302.5 370.8,311.5 368.3,320.5 365.8,329.6 363.2,338.8 360.7,348.1 358.2,357.5 355.7,366.9 353.2,376.4 350.6,386.0 348.1,395.7 345.6,405.5 343.1,415.4 340.6,425.3 338.0,435.3 335.5,445.4 333.0,455.6 330.5,465.8 328.0,476.1 325.4,486.6 322.9,497.1 320.4,507.6 317.9,518.3 315.4,529.0 312.8,539.9 310.3,550.8 307.8,561.7 305.3,572.8 302.8,583.9 300.2,595.2 297.7,606.5 295.2,617.9 292.7,629.3 290.2,640.9 287.6,652.5 285.1,664.2 282.6,676.0" fill="none" stroke="#a73d2a" stroke-width="3.2" stroke-dasharray="3 5" stroke-linecap="round" stroke-linejoin="round" /><polyline points="574.7,170.1 569.8,172.3 565.0,174.7 560.1,177.3 555.2,180.1 550.4,183.1 545.5,186.4 540.6,189.8 535.8,193.5 530.9,197.4 526.0,201.5 521.1,205.8 516.3,210.3 511.4,215.0 506.5,220.0 501.7,225.1 496.8,230.5 491.9,236.1 487.1,241.9 482.2,247.9 477.3,254.1 472.5,260.5 467.6,267.1 462.7,274.0 457.9,281.0 453.0,288.3 448.1,295.8 443.3,303.5 438.4,311.4 433.5,319.5 428.7,327.8 423.8,336.3 418.9,345.1 414.0,354.1 409.2,363.2 404.3,372.6 399.4,382.2 394.6,392.0 389.7,402.0 384.8,412.3 380.0,422.7 375.1,433.4 370.2,444.2 365.4,455.3 360.5,466.6 355.6,478.1 350.8,489.8 345.9,501.7 341.0,513.9 336.2,526.2 331.3,538.8 326.4,551.5 321.6,564.5 316.7,577.7 311.8,591.1 306.9,604.7 302.1,618.6 297.2,632.6 292.3,646.9 287.5,661.3 282.6,676.0" fill="none" stroke="#c17c11" stroke-width="3.2" stroke-dasharray="8 6" stroke-linecap="round" stroke-linejoin="round" /><polyline points="574.7,170.1 569.8,174.5 565.0,179.1 560.1,183.8 555.2,188.6 550.4,193.6 545.5,198.7 540.6,204.0 535.8,209.4 530.9,214.9 526.0,220.5 521.1,226.3 516.3,232.3 511.4,238.3 506.5,244.5 501.7,250.9 496.8,257.3 491.9,263.9 487.1,270.7 482.2,277.5 477.3,284.5 472.5,291.7 467.6,299.0 462.7,306.4 457.9,313.9 453.0,321.6 448.1,329.4 443.3,337.4 438.4,345.5 433.5,353.7 428.7,362.1 423.8,370.6 418.9,379.2 414.0,388.0 409.2,396.9 404.3,405.9 399.4,415.1 394.6,424.4 389.7,433.9 384.8,443.5 380.0,453.2 375.1,463.0 370.2,473.0 365.4,483.2 360.5,493.4 355.6,503.8 350.8,514.3 345.9,525.0 341.0,535.8 336.2,546.7 331.3,557.8 326.4,569.0 321.6,580.4 316.7,591.9 311.8,603.5 306.9,615.2 302.1,627.1 297.2,639.1 292.3,651.3 287.5,663.6 282.6,676.0" fill="none" stroke="#1d70b8" stroke-width="3.2" stroke-linecap="round" stroke-linejoin="round" /><polyline points="574.7,170.1 569.8,176.3 565.0,182.5 560.1,188.9 555.2,195.3 550.4,201.8 545.5,208.3 540.6,215.0 535.8,221.7 530.9,228.5 526.0,235.4 521.1,242.3 516.3,249.3 511.4,256.4 506.5,263.6 501.7,270.8 496.8,278.2 491.9,285.6 487.1,293.1 482.2,300.6 477.3,308.2 472.5,316.0 467.6,323.7 462.7,331.6 457.9,339.5 453.0,347.5 448.1,355.6 443.3,363.8 438.4,372.0 433.5,380.4 428.7,388.8 423.8,397.2 418.9,405.8 414.0,414.4 409.2,423.1 404.3,431.9 399.4,440.7 394.6,449.6 389.7,458.7 384.8,467.7 380.0,476.9 375.1,486.1 370.2,495.4 365.4,504.8 360.5,514.3 355.6,523.8 350.8,533.4 345.9,543.1 341.0,552.9 336.2,562.7 331.3,572.6 326.4,582.6 321.6,592.7 316.7,602.8 311.8,613.1 306.9,623.4 302.1,633.7 297.2,644.2 292.3,654.7 287.5,665.3 282.6,676.0" fill="none" stroke="#a73d2a" stroke-width="3.2" stroke-dasharray="3 5" stroke-linecap="round" stroke-linejoin="round" /><polyline points="695.7,262.9 688.8,263.9 681.9,265.1 675.0,266.6 668.1,268.2 661.3,270.0 654.4,272.0 647.5,274.2 640.6,276.6 633.7,279.2 626.8,282.0 620.0,285.0 613.1,288.2 606.2,291.6 599.3,295.2 592.4,299.0 585.5,303.0 578.6,307.2 571.8,311.6 564.9,316.2 558.0,321.0 551.1,326.0 544.2,331.2 537.3,336.6 530.5,342.2 523.6,348.0 516.7,354.0 509.8,360.2 502.9,366.5 496.0,373.1 489.1,379.9 482.3,386.9 475.4,394.1 468.5,401.5 461.6,409.0 454.7,416.8 447.8,424.8 441.0,433.0 434.1,441.4 427.2,449.9 420.3,458.7 413.4,467.7 406.5,476.9 399.6,486.2 392.8,495.8 385.9,505.6 379.0,515.5 372.1,525.7 365.2,536.1 358.3,546.6 351.5,557.4 344.6,568.4 337.7,579.5 330.8,590.9 323.9,602.5 317.0,614.2 310.1,626.2 303.3,638.3 296.4,650.7 289.5,663.2 282.6,676.0" fill="none" stroke="#c17c11" stroke-width="3.2" stroke-dasharray="8 6" stroke-linecap="round" stroke-linejoin="round" /><polyline points="695.7,262.9 688.8,266.0 681.9,269.3 675.0,272.7 668.1,276.2 661.3,279.8 654.4,283.6 647.5,287.5 640.6,291.5 633.7,295.7 626.8,299.9 620.0,304.3 613.1,308.9 606.2,313.5 599.3,318.3 592.4,323.2 585.5,328.2 578.6,333.4 571.8,338.7 564.9,344.1 558.0,349.7 551.1,355.3 544.2,361.1 537.3,367.1 530.5,373.1 523.6,379.3 516.7,385.6 509.8,392.1 502.9,398.6 496.0,405.3 489.1,412.2 482.3,419.1 475.4,426.2 468.5,433.4 461.6,440.7 454.7,448.2 447.8,455.8 441.0,463.5 434.1,471.3 427.2,479.3 420.3,487.4 413.4,495.6 406.5,503.9 399.6,512.4 392.8,521.0 385.9,529.7 379.0,538.6 372.1,547.6 365.2,556.7 358.3,565.9 351.5,575.3 344.6,584.8 337.7,594.4 330.8,604.2 323.9,614.1 317.0,624.1 310.1,634.2 303.3,644.5 296.4,654.8 289.5,665.4 282.6,676.0" fill="none" stroke="#1d70b8" stroke-width="3.2" stroke-linecap="round" stroke-linejoin="round" /><polyline points="695.7,262.9 688.8,267.7 681.9,272.5 675.0,277.4 668.1,282.4 661.3,287.5 654.4,292.6 647.5,297.8 640.6,303.1 633.7,308.4 626.8,313.9 620.0,319.3 613.1,324.9 606.2,330.5 599.3,336.2 592.4,342.0 585.5,347.9 578.6,353.8 571.8,359.8 564.9,365.8 558.0,372.0 551.1,378.2 544.2,384.4 537.3,390.8 530.5,397.2 523.6,403.7 516.7,410.3 509.8,416.9 502.9,423.6 496.0,430.4 489.1,437.2 482.3,444.1 475.4,451.1 468.5,458.2 461.6,465.3 454.7,472.5 447.8,479.8 441.0,487.2 434.1,494.6 427.2,502.1 420.3,509.7 413.4,517.3 406.5,525.0 399.6,532.8 392.8,540.6 385.9,548.6 379.0,556.5 372.1,564.6 365.2,572.8 358.3,581.0 351.5,589.2 344.6,597.6 337.7,606.0 330.8,614.5 323.9,623.1 317.0,631.7 310.1,640.4 303.3,649.2 296.4,658.1 289.5,667.0 282.6,676.0" fill="none" stroke="#a73d2a" stroke-width="3.2" stroke-dasharray="3 5" stroke-linecap="round" stroke-linejoin="round" /><polyline points="788.5,383.9 780.1,383.3 771.7,382.8 763.2,382.5 754.8,382.5 746.4,382.6 737.9,382.9 729.5,383.3 721.1,384.0 712.6,384.9 704.2,385.9 695.8,387.1 687.3,388.5 678.9,390.1 670.5,391.9 662.0,393.9 653.6,396.1 645.2,398.4 636.7,400.9 628.3,403.7 619.9,406.6 611.5,409.7 603.0,412.9 594.6,416.4 586.2,420.1 577.7,423.9 569.3,427.9 560.9,432.2 552.4,436.6 544.0,441.1 535.6,445.9 527.1,450.9 518.7,456.0 510.3,461.4 501.8,466.9 493.4,472.6 485.0,478.5 476.5,484.6 468.1,490.8 459.7,497.3 451.2,503.9 442.8,510.8 434.4,517.8 425.9,525.0 417.5,532.4 409.1,539.9 400.7,547.7 392.2,555.7 383.8,563.8 375.4,572.1 366.9,580.6 358.5,589.3 350.1,598.2 341.6,607.3 333.2,616.5 324.8,626.0 316.3,635.6 307.9,645.4 299.5,655.4 291.0,665.6 282.6,676.0" fill="none" stroke="#c17c11" stroke-width="3.2" stroke-dasharray="8 6" stroke-linecap="round" stroke-linejoin="round" /><polyline points="788.5,383.9 780.1,385.2 771.7,386.7 763.2,388.3 754.8,390.0 746.4,391.8 737.9,393.8 729.5,395.8 721.1,398.0 712.6,400.3 704.2,402.7 695.8,405.2 687.3,407.9 678.9,410.7 670.5,413.6 662.0,416.6 653.6,419.7 645.2,423.0 636.7,426.4 628.3,429.9 619.9,433.5 611.5,437.2 603.0,441.0 594.6,445.0 586.2,449.1 577.7,453.3 569.3,457.7 560.9,462.1 552.4,466.7 544.0,471.4 535.6,476.2 527.1,481.1 518.7,486.1 510.3,491.3 501.8,496.6 493.4,502.0 485.0,507.5 476.5,513.2 468.1,518.9 459.7,524.8 451.2,530.8 442.8,537.0 434.4,543.2 425.9,549.6 417.5,556.0 409.1,562.6 400.7,569.4 392.2,576.2 383.8,583.2 375.4,590.2 366.9,597.4 358.5,604.8 350.1,612.2 341.6,619.8 333.2,627.4 324.8,635.2 316.3,643.1 307.9,651.2 299.5,659.3 291.0,667.6 282.6,676.0" fill="none" stroke="#1d70b8" stroke-width="3.2" stroke-linecap="round" stroke-linejoin="round" /><polyline points="788.5,383.9 780.1,386.8 771.7,389.7 763.2,392.8 754.8,395.9 746.4,399.0 737.9,402.2 729.5,405.5 721.1,408.9 712.6,412.3 704.2,415.8 695.8,419.3 687.3,423.0 678.9,426.7 670.5,430.4 662.0,434.2 653.6,438.1 645.2,442.1 636.7,446.1 628.3,450.2 619.9,454.4 611.5,458.6 603.0,462.9 594.6,467.3 586.2,471.7 577.7,476.2 569.3,480.8 560.9,485.4 552.4,490.1 544.0,494.9 535.6,499.7 527.1,504.6 518.7,509.6 510.3,514.6 501.8,519.7 493.4,524.9 485.0,530.1 476.5,535.4 468.1,540.8 459.7,546.2 451.2,551.7 442.8,557.3 434.4,563.0 425.9,568.7 417.5,574.4 409.1,580.3 400.7,586.2 392.2,592.2 383.8,598.2 375.4,604.3 366.9,610.5 358.5,616.8 350.1,623.1 341.6,629.5 333.2,635.9 324.8,642.4 316.3,649.0 307.9,655.6 299.5,662.4 291.0,669.1 282.6,676.0" fill="none" stroke="#a73d2a" stroke-width="3.2" stroke-dasharray="3 5" stroke-linecap="round" stroke-linejoin="round" /><polyline points="831.6,476.2 822.4,474.4 813.3,472.7 804.1,471.2 795.0,469.9 785.8,468.8 776.7,467.8 767.5,467.1 758.4,466.5 749.2,466.0 740.1,465.8 730.9,465.7 721.8,465.8 712.6,466.1 703.5,466.5 694.3,467.1 685.2,467.9 676.0,468.9 666.9,470.0 657.7,471.3 648.6,472.8 639.4,474.5 630.3,476.4 621.1,478.4 612.0,480.6 602.8,482.9 593.7,485.5 584.5,488.2 575.4,491.1 566.2,494.2 557.1,497.4 547.9,500.8 538.8,504.4 529.6,508.2 520.5,512.1 511.3,516.2 502.2,520.5 493.0,525.0 483.9,529.6 474.7,534.5 465.6,539.4 456.4,544.6 447.3,549.9 438.1,555.5 429.0,561.2 419.8,567.0 410.7,573.1 401.5,579.3 392.4,585.7 383.2,592.2 374.1,599.0 364.9,605.9 355.8,613.0 346.6,620.2 337.5,627.7 328.4,635.3 319.2,643.1 310.1,651.1 300.9,659.2 291.8,667.5 282.6,676.0" fill="none" stroke="#c17c11" stroke-width="3.2" stroke-dasharray="8 6" stroke-linecap="round" stroke-linejoin="round" /><polyline points="831.6,476.2 822.4,476.2 813.3,476.4 804.1,476.6 795.0,477.0 785.8,477.5 776.7,478.0 767.5,478.7 758.4,479.6 749.2,480.5 740.1,481.5 730.9,482.7 721.8,483.9 712.6,485.3 703.5,486.8 694.3,488.4 685.2,490.1 676.0,491.9 666.9,493.8 657.7,495.9 648.6,498.0 639.4,500.3 630.3,502.7 621.1,505.2 612.0,507.8 602.8,510.5 593.7,513.3 584.5,516.2 575.4,519.3 566.2,522.5 557.1,525.7 547.9,529.1 538.8,532.6 529.6,536.2 520.5,539.9 511.3,543.8 502.2,547.7 493.0,551.8 483.9,556.0 474.7,560.2 465.6,564.6 456.4,569.1 447.3,573.7 438.1,578.5 429.0,583.3 419.8,588.3 410.7,593.3 401.5,598.5 392.4,603.8 383.2,609.2 374.1,614.7 364.9,620.3 355.8,626.1 346.6,631.9 337.5,637.9 328.4,644.0 319.2,650.1 310.1,656.4 300.9,662.8 291.8,669.4 282.6,676.0" fill="none" stroke="#1d70b8" stroke-width="3.2" stroke-linecap="round" stroke-linejoin="round" /><polyline points="831.6,476.2 822.4,477.7 813.3,479.2 804.1,480.8 795.0,482.5 785.8,484.2 776.7,486.0 767.5,487.8 758.4,489.7 749.2,491.7 740.1,493.8 730.9,495.9 721.8,498.0 712.6,500.3 703.5,502.5 694.3,504.9 685.2,507.3 676.0,509.8 666.9,512.3 657.7,514.9 648.6,517.6 639.4,520.3 630.3,523.1 621.1,526.0 612.0,528.9 602.8,531.9 593.7,534.9 584.5,538.1 575.4,541.2 566.2,544.5 557.1,547.8 547.9,551.1 538.8,554.6 529.6,558.0 520.5,561.6 511.3,565.2 502.2,568.9 493.0,572.6 483.9,576.4 474.7,580.3 465.6,584.2 456.4,588.2 447.3,592.3 438.1,596.4 429.0,600.6 419.8,604.8 410.7,609.1 401.5,613.5 392.4,617.9 383.2,622.4 374.1,627.0 364.9,631.6 355.8,636.3 346.6,641.0 337.5,645.8 328.4,650.7 319.2,655.6 310.1,660.6 300.9,665.7 291.8,670.8 282.6,676.0" fill="none" stroke="#a73d2a" stroke-width="3.2" stroke-dasharray="3 5" stroke-linecap="round" stroke-linejoin="round" /><polyline points="857.9,574.6 848.3,571.8 838.7,569.1 829.2,566.6 819.6,564.3 810.0,562.1 800.4,560.0 790.8,558.1 781.2,556.4 771.6,554.8 762.0,553.4 752.4,552.1 742.9,551.0 733.3,550.0 723.7,549.2 714.1,548.5 704.5,548.0 694.9,547.6 685.3,547.4 675.7,547.3 666.1,547.4 656.6,547.7 647.0,548.1 637.4,548.6 627.8,549.3 618.2,550.2 608.6,551.2 599.0,552.3 589.4,553.6 579.8,555.1 570.3,556.7 560.7,558.5 551.1,560.4 541.5,562.5 531.9,564.7 522.3,567.1 512.7,569.6 503.1,572.3 493.6,575.1 484.0,578.1 474.4,581.2 464.8,584.5 455.2,588.0 445.6,591.6 436.0,595.3 426.4,599.2 416.8,603.3 407.3,607.5 397.7,611.8 388.1,616.3 378.5,621.0 368.9,625.8 359.3,630.8 349.7,635.9 340.1,641.2 330.5,646.6 321.0,652.2 311.4,657.9 301.8,663.8 292.2,669.8 282.6,676.0" fill="none" stroke="#c17c11" stroke-width="3.2" stroke-dasharray="8 6" stroke-linecap="round" stroke-linejoin="round" /><polyline points="857.9,574.6 848.3,573.4 838.7,572.3 829.2,571.3 819.6,570.4 810.0,569.6 800.4,568.9 790.8,568.3 781.2,567.8 771.6,567.4 762.0,567.1 752.4,566.9 742.9,566.8 733.3,566.7 723.7,566.8 714.1,567.0 704.5,567.3 694.9,567.7 685.3,568.1 675.7,568.7 666.1,569.4 656.6,570.1 647.0,571.0 637.4,572.0 627.8,573.0 618.2,574.2 608.6,575.4 599.0,576.8 589.4,578.2 579.8,579.8 570.3,581.4 560.7,583.1 551.1,585.0 541.5,586.9 531.9,588.9 522.3,591.1 512.7,593.3 503.1,595.6 493.6,598.0 484.0,600.6 474.4,603.2 464.8,605.9 455.2,608.7 445.6,611.6 436.0,614.6 426.4,617.7 416.8,620.9 407.3,624.2 397.7,627.6 388.1,631.1 378.5,634.7 368.9,638.4 359.3,642.2 349.7,646.1 340.1,650.1 330.5,654.1 321.0,658.3 311.4,662.6 301.8,667.0 292.2,671.4 282.6,676.0" fill="none" stroke="#1d70b8" stroke-width="3.2" stroke-linecap="round" stroke-linejoin="round" /><polyline points="857.9,574.6 848.3,574.6 838.7,574.8 829.2,574.9 819.6,575.2 810.0,575.5 800.4,575.8 790.8,576.2 781.2,576.7 771.6,577.2 762.0,577.8 752.4,578.4 742.9,579.1 733.3,579.8 723.7,580.6 714.1,581.4 704.5,582.3 694.9,583.3 685.3,584.3 675.7,585.3 666.1,586.4 656.6,587.6 647.0,588.8 637.4,590.1 627.8,591.4 618.2,592.8 608.6,594.3 599.0,595.8 589.4,597.3 579.8,598.9 570.3,600.6 560.7,602.3 551.1,604.1 541.5,605.9 531.9,607.8 522.3,609.7 512.7,611.7 503.1,613.8 493.6,615.9 484.0,618.0 474.4,620.2 464.8,622.5 455.2,624.8 445.6,627.2 436.0,629.6 426.4,632.1 416.8,634.7 407.3,637.3 397.7,639.9 388.1,642.6 378.5,645.4 368.9,648.2 359.3,651.1 349.7,654.0 340.1,657.0 330.5,660.0 321.0,663.1 311.4,666.2 301.8,669.4 292.2,672.7 282.6,676.0" fill="none" stroke="#a73d2a" stroke-width="3.2" stroke-dasharray="3 5" stroke-linecap="round" stroke-linejoin="round" />
  <circle cx="282.6" cy="91.8" r="4.5" fill="#1f1a14" /><text x="290.6" y="81.8" class="arc-label">a00</text><circle cx="433.8" cy="111.7" r="4.5" fill="#1f1a14" /><text x="441.8" y="101.7" class="arc-label">a15</text><circle cx="574.7" cy="170.1" r="4.5" fill="#1f1a14" /><text x="582.7" y="160.1" class="arc-label">a30</text><circle cx="695.7" cy="262.9" r="4.5" fill="#1f1a14" /><text x="703.7" y="252.9" class="arc-label">a45</text><circle cx="788.5" cy="383.9" r="4.5" fill="#1f1a14" /><text x="796.5" y="373.9" class="arc-label">a60</text><circle cx="831.6" cy="476.2" r="4.5" fill="#1f1a14" /><text x="839.6" y="466.2" class="arc-label">a70</text><circle cx="857.9" cy="574.6" r="4.5" fill="#1f1a14" /><text x="865.9" y="564.6" class="arc-label">a80</text>
  <rect x="888" y="64" width="180" height="108" rx="12" fill="#fffaf1" stroke="#dcc9ab" stroke-width="1.2" /><text x="904" y="86" class="legend-title">Band Legend</text><line x1="904" y1="106" x2="940" y2="106" stroke="#c17c11" stroke-width="3.2" stroke-dasharray="8 6" stroke-linecap="round" /><text x="950" y="111" class="legend-label">low</text><line x1="904" y1="128" x2="940" y2="128" stroke="#1d70b8" stroke-width="3.2" stroke-linecap="round" /><text x="950" y="133" class="legend-label">mid</text><line x1="904" y1="150" x2="940" y2="150" stroke="#a73d2a" stroke-width="3.2" stroke-dasharray="3 5" stroke-linecap="round" /><text x="950" y="155" class="legend-label">high</text>
  <text x="88" y="734" class="note">Bands are solved from time-to-go. Low may start upward at shallow cells when the tuned practical flight time calls for it.</text>
</svg>
